<?xml version="1.0" encoding="utf-8"?>
<!-- Generator: Adobe Illustrator 16.0.0, SVG Export Plug-In . SVG Version: 6.00 Build 0)  -->
<!DOCTYPE svg PUBLIC "-//W3C//DTD SVG 1.1//EN" "http://www.w3.org/Graphics/SVG/1.1/DTD/svg11.dtd">
<svg version="1.1" id="Layer_1" xmlns="http://www.w3.org/2000/svg" xmlns:xlink="http://www.w3.org/1999/xlink" x="0px" y="0px"
	 width="1366px" height="497.404px" viewBox="0 0 1366 497.404" enable-background="new 0 0 1366 497.404" xml:space="preserve">
<rect x="0" fill="#270076" width="264.088" height="337.869"/>
<rect x="298.167" fill="#FFE44E" width="119.254" height="337.869"/>
<rect x="433.5" fill="#FFE44E" width="68.96" height="337.869"/>
<rect x="512" fill="#FFE44E" width="42.46" height="337.869"/>
<rect x="561.5" fill="#FFE44E" width="29" height="337.869"/>
<rect x="595.5" fill="#FFE44E" width="23.5" height="337.869"/>
<rect x="621.5" fill="#FFE44E" width="16.5" height="337.869"/>
<rect x="640.75" fill="#FFE44E" width="12.5" height="337.869"/>
<rect x="655.75" fill="#FFE44E" width="11.25" height="337.869"/>
<rect x="668.75" fill="#FFE44E" width="9" height="337.869"/>
<rect x="1098.908" fill="#270076" width="264.088" height="337.869"/>
<rect x="945.575" fill="#FFE44E" width="119.254" height="337.869"/>
<rect x="860.536" fill="#FFE44E" width="68.96" height="337.869"/>
<rect x="808.535" fill="#FFE44E" width="42.461" height="337.869"/>
<rect x="772.496" fill="#FFE44E" width="29" height="337.869"/>
<rect x="743.996" fill="#FFE44E" width="23.5" height="337.869"/>
<rect x="724.996" fill="#FFE44E" width="16.5" height="337.869"/>
<rect x="709.746" fill="#FFE44E" width="12.5" height="337.869"/>
<rect x="695.996" fill="#FFE44E" width="11.25" height="337.869"/>
<rect x="685.246" fill="#FFE44E" width="9" height="337.869"/>
</svg>
