<?xml version="1.0" encoding="utf-8"?>
<!-- Generator: Adobe Illustrator 16.0.0, SVG Export Plug-In . SVG Version: 6.00 Build 0)  -->
<!DOCTYPE svg PUBLIC "-//W3C//DTD SVG 1.1//EN" "http://www.w3.org/Graphics/SVG/1.1/DTD/svg11.dtd">
<svg version="1.1" id="Layer_1" xmlns="http://www.w3.org/2000/svg" xmlns:xlink="http://www.w3.org/1999/xlink" x="0px" y="0px"
	 width="52.75px" height="52.75px" viewBox="0 0 52.75 52.75" enable-background="new 0 0 52.75 52.75" xml:space="preserve">
<path d="M26.38,0C11.81,0,0,11.81,0,26.38c0,14.56,11.81,26.37,26.38,26.37c14.56,0,26.37-11.81,26.37-26.37
	C52.75,11.81,40.94,0,26.38,0z M18.99,44.35l0.13-0.58l5.14-24.07c-2.18-0.85-3.74-2.97-3.74-5.45c0-3.23,2.62-5.85,5.86-5.85
	c3.23,0,5.85,2.62,5.85,5.85c0,2.49-1.55,4.62-3.74,5.45l5.14,24.07l0.13,0.58H18.99z"/>
</svg>
