<?xml version="1.0" encoding="utf-8"?>
<!-- Generator: Adobe Illustrator 16.0.0, SVG Export Plug-In . SVG Version: 6.00 Build 0)  -->
<!DOCTYPE svg PUBLIC "-//W3C//DTD SVG 1.1//EN" "http://www.w3.org/Graphics/SVG/1.1/DTD/svg11.dtd">
<svg version="1.1" id="Layer_1" xmlns="http://www.w3.org/2000/svg" xmlns:xlink="http://www.w3.org/1999/xlink" x="0px" y="0px"
	 width="66.482px" height="38.998px" viewBox="0 0 66.482 38.998" enable-background="new 0 0 66.482 38.998" xml:space="preserve">
<g>
	<path fill="#EAC47A" d="M66.212,19.049c-0.03,0.01-0.05,0.01-0.08,0.02v1.44h0.11c-0.02,0.21-0.04,0.431-0.11,0.641v0.81
		c0.12-0.13,0.24-0.25,0.39-0.35v-2.61C66.422,19.019,66.322,19.029,66.212,19.049z M66.132,22.549v0.37
		c0.15,0.11,0.27,0.21,0.39,0.33v-1.51C66.473,22.039,66.313,22.309,66.132,22.549z"/>
	<path fill="#6F6F6F" d="M66.532,18.749c0,0.06,0,0.18-0.01,0.25v0.01c-0.1,0.01-0.2,0.02-0.31,0.04c-0.03,0.01-0.05,0.01-0.08,0.02
		v-0.26c0.13-0.03,0.26-0.05,0.39-0.06H66.532z"/>
	<path fill="#6F6F6F" d="M66.552,21.589c0,0.04-0.01,0.08-0.02,0.11c0,0.01,0,0.03-0.01,0.04c-0.05,0.3-0.21,0.569-0.39,0.81v-0.59
		c0.12-0.13,0.24-0.25,0.39-0.35c0-0.011,0.01-0.011,0.01-0.011C66.542,21.589,66.542,21.579,66.552,21.589z"/>
	<path fill="#6F6F6F" d="M66.572,23.299c-0.01,0-0.03,0-0.04-0.01h-0.01c-0.14-0.01-0.26-0.04-0.39-0.09v-0.28
		c0.15,0.11,0.27,0.21,0.39,0.33l0.01,0.01C66.552,23.269,66.563,23.289,66.572,23.299z"/>
</g>
<g>
	<path fill="#4DA200" d="M66.393,20.979c-0.01,0.029-0.02,0.06-0.04,0.09c0.02-0.101,0.07-0.32,0.13-0.66
		C66.453,20.599,66.422,20.799,66.393,20.979z"/>
	<path fill="#4DA200" d="M66.553,22.449c0,0.04,0.01,0.08,0.01,0.12c-0.02,0.17-0.03,0.35-0.05,0.529L66.553,22.449z"/>
	<g>
		<g>
			<path fill="#EAC47A" d="M-0.011,23.302c0.033-1.433,0.033-2.869,0.051-4.298c0.439,0.053,0.909,0.13,1.24,0.453
				c0.457,0.438,0.814,0.971,1.214,1.464c0.468,0.653,0.96,1.285,1.382,1.971c-0.75,0.271-1.612,0.371-2.373,0.065
				c-0.641-0.279-0.914-0.994-1.486-1.375c0.051,0.466,0.319,0.851,0.594,1.211C0.388,22.942,0.175,23.108-0.011,23.302z
				 M0.583,21.476c0.346,0.559,0.787,1.082,1.367,1.402c0.253,0.155,0.55,0.053,0.818,0.012c-0.004-0.287-0.013-0.599-0.201-0.832
				c-0.352-0.498-0.75-0.977-1.217-1.365c-0.289-0.239-0.686-0.188-1.029-0.18C0.354,20.844,0.393,21.188,0.583,21.476z"/>
		</g>
		<g>
			<path fill="#EAC47A" d="M3.686,22.035c-0.705-0.9-1.326-1.867-1.964-2.815c0.658-0.258,1.404-0.282,2.084-0.117
				c0.582,0.159,0.936,0.681,1.287,1.123c0.645,0.871,1.299,1.738,1.83,2.688c-0.732,0.284-1.581,0.342-2.322,0.046
				C4.18,22.792,3.958,22.373,3.686,22.035z M3.579,21.396c0.33,0.568,0.755,1.105,1.321,1.455c0.241,0.153,0.705,0.201,0.878-0.024
				c0.118-0.519-0.296-0.937-0.585-1.306c-0.315-0.355-0.636-0.735-1.074-0.955c-0.243-0.133-0.519-0.045-0.776,0
				C3.387,20.853,3.429,21.144,3.579,21.396z"/>
		</g>
		<g>
			<path fill="#EAC47A" d="M5.487,20.287C5.247,19.942,5,19.604,4.819,19.222c0.74-0.296,1.602-0.298,2.344-0.002
				c0.406,0.157,0.648,0.528,0.916,0.846c0.717,0.922,1.396,1.865,2.053,2.83c-0.566,0.207-1.18,0.377-1.789,0.256
				c-0.43-0.073-0.891-0.211-1.18-0.569C6.566,21.847,6.03,21.06,5.487,20.287z M6.644,21.435c0.389,0.659,0.912,1.34,1.685,1.549
				c0.23,0.08,0.542-0.074,0.527-0.344c-0.029-0.457-0.361-0.802-0.649-1.123c-0.28-0.299-0.538-0.633-0.878-0.871
				c-0.269-0.188-0.609-0.143-0.918-0.104C6.433,20.851,6.472,21.167,6.644,21.435z"/>
		</g>
		<g>
			<path fill="#EAC47A" d="M9.639,21.729c-0.61-0.797-1.147-1.648-1.772-2.439c0.656-0.372,1.475-0.336,2.176-0.116
				c0.352,0.094,0.639,0.333,0.857,0.618c0.454,0.568,0.873,1.164,1.283,1.762c0.299,0.45,0.633,0.881,0.842,1.383
				c-0.709,0.271-1.531,0.377-2.237,0.045C10.241,22.743,9.986,22.174,9.639,21.729z M9.637,21.368
				c0.269,0.501,0.638,0.955,1.083,1.311c0.287,0.238,0.68,0.383,1.042,0.271c0.152-0.076,0.173-0.271,0.132-0.425
				c-0.115-0.441-0.438-0.797-0.734-1.129c-0.27-0.287-0.529-0.586-0.863-0.789c-0.247-0.148-0.547-0.08-0.82-0.067
				C9.489,20.817,9.489,21.112,9.637,21.368z"/>
		</g>
		<g>
			<path fill="#EAC47A" d="M12.803,22.043c-0.649-0.915-1.33-1.812-1.913-2.771c0.738-0.362,1.609-0.318,2.357-0.011
				c0.283,0.132,0.478,0.383,0.674,0.606c0.385,0.483,0.765,0.971,1.113,1.478c0.352,0.521,0.764,1.002,1.032,1.571
				c-0.417,0.159-0.849,0.306-1.296,0.306c-0.345-0.021-0.681-0.109-0.996-0.234C13.342,22.813,13.079,22.397,12.803,22.043z
				 M13.198,22.104c0.313,0.396,0.717,0.765,1.211,0.896c0.208,0.032,0.572-0.069,0.535-0.34c-0.036-0.402-0.302-0.738-0.54-1.05
				c-0.333-0.396-0.702-0.791-1.157-1.047c-0.234-0.133-0.507-0.037-0.756-0.004C12.466,21.167,12.867,21.646,13.198,22.104z"/>
		</g>
		<g>
			<path fill="#EAC47A" d="M14.72,20.457c-0.27-0.405-0.6-0.781-0.775-1.235c0.727-0.257,1.528-0.249,2.25,0.017
				c0.186,0.071,0.337,0.205,0.473,0.343c0.771,0.851,1.347,1.853,2.038,2.763c0.197,0.237,0.304,0.53,0.374,0.83
				c0.225-0.123,0.473-0.172,0.689-0.013c-0.141,0.282-0.305,0.557-0.494,0.803c-0.119-0.141-0.251-0.282-0.339-0.444
				c-0.056-0.168-0.009-0.342-0.009-0.51c-0.658,0.211-1.408,0.283-2.053,0.004c-0.461-0.188-0.755-0.604-1.039-0.996
				C15.475,21.493,15.075,20.992,14.72,20.457z M15.705,21.319c0.315,0.63,0.792,1.193,1.401,1.553
				c0.275,0.174,0.604,0.093,0.9,0.039c-0.031-0.24-0.059-0.483-0.146-0.71c-0.2-0.604-0.729-1.011-1.168-1.438
				c-0.293-0.304-0.747-0.236-1.13-0.205C15.569,20.817,15.577,21.086,15.705,21.319z"/>
		</g>
		<g>
			<path fill="#EAC47A" d="M18.761,21.923c-0.745-0.779-1.309-1.71-1.771-2.685c0.396-0.132,0.807-0.209,1.229-0.192
				c0.492,0,1.047,0.034,1.43,0.389c0.533,0.518,0.974,1.123,1.412,1.716c0.414,0.57,0.844,1.125,1.193,1.73
				c-0.631,0.354-1.399,0.367-2.09,0.21C19.531,22.942,19.183,22.362,18.761,21.923z M19.28,21.948
				c0.326,0.414,0.689,0.848,1.213,1.009c0.238,0.071,0.574,0.046,0.686-0.21c0.016-0.327-0.192-0.609-0.367-0.863
				c-0.352-0.443-0.723-0.883-1.186-1.211c-0.251-0.184-0.572-0.16-0.859-0.178C18.622,21.046,18.948,21.542,19.28,21.948z"/>
		</g>
		<g>
			<path fill="#EAC47A" d="M18.472,18.816c0.057-0.622,0.318-1.253,0.788-1.677c0.71-0.504,1.63-0.53,2.396-0.907
				c-0.715-0.065-1.421,0.105-2.127,0.211c-0.014-1.053,0.708-2.118,1.715-2.454c1.451-0.152,2.912,0.259,4.227,0.86
				c-0.286,0.568-0.797,1.003-1.369,1.263c-0.801,0.259-1.678-0.13-2.47,0.179c0.673,0.134,1.374,0.078,2.034,0.291
				c-0.132,0.668-0.499,1.33-1.081,1.703c-0.61,0.228-1.224,0.497-1.886,0.548c-0.335,0.022-0.609,0.223-0.914,0.349
				c-0.156-0.063-0.286-0.161-0.426-0.257c0.66-0.293,1.314-0.611,1.919-1.001c0.282-0.161,0.378-0.474,0.47-0.761
				c-0.314-0.122-0.653-0.265-1.001-0.188c-0.69,0.139-1.409,0.418-1.833,1.012c-0.184,0.237-0.188,0.546-0.208,0.833
				C18.648,18.821,18.532,18.816,18.472,18.816z M20.037,15.317c0.333,0.361,0.839,0.293,1.28,0.253
				c0.621-0.067,1.298,0.005,1.844-0.362c0.205-0.108,0.366-0.381,0.209-0.595c-0.232-0.229-0.572-0.273-0.884-0.319
				c-0.628-0.056-1.308-0.071-1.874,0.256C20.316,14.707,20.188,15.04,20.037,15.317z"/>
		</g>
		<path fill="#EAC47A" d="M21.134,27.237c-0.912-0.523-1.594-1.524-1.603-2.596c-0.011-0.51,0.289-0.94,0.569-1.343
			c0.154,0.032,0.311,0.068,0.46,0.104c-0.628,0.256-0.749,1.021-0.806,1.615c-0.071,0.426,0.238,0.75,0.502,1.028
			c0.253-0.207,0.502-0.438,0.629-0.748c0.258-0.604,0.423-1.237,0.613-1.868c0.371-0.113,0.75-0.234,1.09-0.433
			c0.026,0.032,0.085,0.104,0.114,0.142c-0.13,0.271-0.263,0.534-0.407,0.801C21.756,24.974,21.357,26.091,21.134,27.237z"/>
		<g>
			<path fill="#EAC47A" d="M22.125,22.12c-0.699-0.934-1.408-1.876-1.998-2.888c0.715-0.229,1.499-0.258,2.219-0.041
				c0.391,0.122,0.647,0.461,0.9,0.759c0.645,0.813,1.24,1.662,1.832,2.51c0.09,0.139,0.176,0.282,0.207,0.45
				c-0.638,0.315-1.399,0.345-2.08,0.151C22.722,22.922,22.413,22.505,22.125,22.12z M22.479,22.134
				c0.313,0.374,0.682,0.752,1.18,0.854c0.217,0.049,0.412-0.098,0.608-0.162c-0.104-0.727-0.642-1.247-1.116-1.748
				c-0.303-0.316-0.703-0.646-1.167-0.563c-0.187,0.021-0.278,0.231-0.22,0.396C21.879,21.378,22.177,21.771,22.479,22.134z"/>
		</g>
		<g>
			<path fill="#EAC47A" d="M21.559,27.931c-0.193-0.396-0.133-0.853-0.025-1.258c0.254-1.177,0.77-2.283,1.431-3.281
				c0.535,0.438,0.979,1.06,1.054,1.754c0.029,0.797-0.313,1.547-0.315,2.342c0.011,0.113,0.073,0.215,0.112,0.318
				c0.209-0.789,0.192-1.639,0.54-2.39c0.577,0.229,1.118,0.625,1.424,1.178c0.241,0.49,0.22,1.052,0.293,1.578
				c0.103,1.017,0.409,1.995,0.685,2.976c-0.745,0.071-1.479-0.191-2.072-0.639c-0.281-0.219-0.545-0.484-0.647-0.828
				c-0.184-0.604-0.192-1.24-0.192-1.861c-0.049-0.006-0.139-0.014-0.186-0.014c-0.025,0.59-0.027,1.188-0.021,1.781
				C22.745,29.382,21.948,28.765,21.559,27.931z M21.759,27.819c0.104,0.349,0.266,0.846,0.709,0.846
				c0.213,0.04,0.334-0.18,0.369-0.355c0.157-0.762,0.199-1.543,0.133-2.313c-0.025-0.232-0.107-0.479-0.301-0.618
				c-0.295-0.151-0.492,0.214-0.633,0.413C21.725,26.405,21.626,27.144,21.759,27.819z M24.11,28.296
				c0.065,0.67,0.122,1.402,0.559,1.947c0.211,0.253,0.553,0.49,0.896,0.365c0.167-0.268,0.122-0.604,0.16-0.904
				c-0.251-0.538-0.337-1.122-0.53-1.678c-0.105-0.269-0.273-0.601-0.606-0.601C24.306,27.614,24.058,27.938,24.11,28.296z"/>
		</g>
		<g>
			<path fill="#EAC47A" d="M21.454,13.596c0.285-0.907,1.078-1.59,1.967-1.881c0.443-0.156,0.902,0.036,1.319,0.179
				c0.817,0.278,1.549,0.752,2.225,1.276c0.228,0.179,0.452,0.367,0.625,0.602c-0.209,0.37-0.649,0.508-1.021,0.661
				c-0.37,0.143-0.779,0.179-1.156,0.037C24.124,14.058,22.812,13.676,21.454,13.596z M22.543,12.834
				c0.289,0.271,0.712,0.304,1.084,0.386c0.535,0.083,1.07,0.268,1.622,0.206c0.247-0.009,0.412-0.21,0.589-0.361
				c-0.173-0.239-0.313-0.527-0.602-0.651c-0.52-0.237-1.074-0.475-1.66-0.442c-0.334,0.013-0.719,0.058-0.953,0.333
				C22.497,12.436,22.374,12.683,22.543,12.834z"/>
		</g>
		<path fill="#EAC47A" d="M22.15,18.863c0.033-0.155,0.381-0.083,0.346,0.075C22.396,19.021,22.22,18.973,22.15,18.863z"/>
		<g>
			<path fill="#EAC47A" d="M25.461,22.446c-0.82-1.021-1.586-2.094-2.293-3.2c0.703-0.265,1.498-0.272,2.221-0.088
				c0.512,0.136,0.824,0.598,1.139,0.987c0.688,0.896,1.365,1.803,2.093,2.668c-0.655,0.356-1.443,0.414-2.166,0.273
				C26.054,23.021,25.706,22.771,25.461,22.446z M25.003,21.411c0.365,0.544,0.769,1.099,1.339,1.436
				c0.311,0.178,0.674,0.129,0.974-0.037c-0.095-0.391-0.243-0.781-0.508-1.093c-0.345-0.421-0.714-0.835-1.192-1.108
				c-0.254-0.15-0.552-0.092-0.826-0.063C24.798,20.847,24.821,21.158,25.003,21.411z"/>
		</g>
		<g>
			<path fill="#EAC47A" d="M24.2,11.353c0.549-0.738,1.486-1.168,2.4-1.165c0.674,0,1.162,0.524,1.619,0.949
				c0.719,0.688,1.326,1.496,1.763,2.391c-0.661,0.273-1.468,0.403-2.12,0.026c-0.396-0.239-0.745-0.543-1.125-0.812
				C25.955,12.173,25.088,11.738,24.2,11.353z M25.541,10.977c0.374,0.519,0.991,0.756,1.541,1.043
				c0.366,0.183,0.759,0.435,1.187,0.345c0.147-0.027,0.326-0.169,0.253-0.331c-0.146-0.498-0.543-0.875-0.939-1.182
				c-0.477-0.332-1.088-0.582-1.672-0.438C25.681,10.475,25.375,10.718,25.541,10.977z"/>
		</g>
		<g>
			<path fill="#EAC47A" d="M27.095,30.949c-0.586-1.238-0.813-2.615-0.835-3.972c0.603-0.012,1.161,0.265,1.635,0.619
				c0.272,0.217,0.389,0.555,0.525,0.86c0.456,1.147,0.983,2.288,1.7,3.312c-0.661,0.275-1.424,0.248-2.089-0.017
				C27.646,31.589,27.288,31.33,27.095,30.949z M27.648,31.218c0.316,0.389,0.834,0.617,1.323,0.436
				c0.047-0.67-0.364-1.209-0.669-1.762c-0.193-0.313-0.371-0.666-0.656-0.916c-0.179-0.162-0.434-0.146-0.657-0.19
				C26.737,29.642,27.11,30.549,27.648,31.218z"/>
		</g>
		<g>
			<path fill="#EAC47A" d="M28.284,21.981c-0.728-0.877-1.382-1.819-2.053-2.739c0.615-0.26,1.313-0.273,1.967-0.155
				c0.393,0.06,0.699,0.326,0.958,0.607c0.855,0.913,1.737,1.795,2.646,2.655c-0.414,0.357-0.962,0.484-1.486,0.577
				c-0.369,0.072-0.74-0.004-1.088-0.132C28.827,22.642,28.552,22.294,28.284,21.981z M28.375,21.798
				c0.418,0.426,0.881,0.911,1.506,0.973c0.278,0.043,0.515-0.127,0.734-0.266c-0.172-0.395-0.4-0.761-0.734-1.033
				c-0.423-0.354-0.842-0.736-1.35-0.966c-0.242-0.127-0.497,0.003-0.721,0.093C27.874,21.046,28.056,21.476,28.375,21.798z"/>
		</g>
		<g>
			<path fill="#EAC47A" d="M29.081,11.667c-0.477-0.574-1.033-1.065-1.6-1.55c0.629-0.49,1.472-0.577,2.248-0.498
				c0.518,0.064,1.031,0.321,1.32,0.772c0.751,1.088,1.186,2.386,1.317,3.702c-0.688,0.022-1.441-0.143-1.977-0.604
				C29.917,12.907,29.567,12.234,29.081,11.667z M29.033,10.303c0.148,0.374,0.448,0.66,0.696,0.969
				c0.426,0.48,0.86,1.142,1.573,1.142c0.268-0.218,0.167-0.6,0.08-0.881c-0.188-0.501-0.498-0.958-0.891-1.321
				c-0.334-0.312-0.818-0.511-1.27-0.395C29.02,9.88,28.936,10.117,29.033,10.303z"/>
		</g>
		<g>
			<path fill="#EAC47A" d="M29.804,30.685c-0.697-0.771-0.994-1.805-1.195-2.81c0.74-0.069,1.616-0.065,2.182,0.49
				c0.469,0.491,0.871,1.038,1.348,1.521c0.511,0.573,1.131,1.03,1.652,1.59c-0.734,0.502-1.688,0.649-2.549,0.45
				C30.582,31.774,30.226,31.149,29.804,30.685z M30.157,30.424c0.385,0.644,0.96,1.25,1.718,1.423c0.253,0.047,0.685,0,0.675-0.339
				c-0.011-0.403-0.352-0.688-0.613-0.95c-0.401-0.334-0.743-0.742-1.19-1.016c-0.235-0.157-0.524-0.109-0.791-0.107
				C29.939,29.776,29.963,30.133,30.157,30.424z"/>
		</g>
		<g>
			<path fill="#EAC47A" d="M31.141,21.392c-0.745-0.701-1.519-1.407-2.081-2.271c0.612-0.355,1.336-0.481,2.032-0.376
				c0.38,0.082,0.686,0.344,0.986,0.566c0.928,0.733,1.863,1.456,2.797,2.174c-0.582,0.582-1.43,0.854-2.24,0.803
				C32.016,22.25,31.6,21.739,31.141,21.392z M30.92,20.688c0.238,0.362,0.584,0.647,0.922,0.918
				c0.383,0.306,0.854,0.514,1.35,0.504c0.345,0.046,0.686-0.438,0.401-0.702c-0.419-0.452-0.954-0.783-1.48-1.097
				c-0.378-0.236-0.835-0.27-1.269-0.223C30.834,20.293,30.788,20.517,30.92,20.688z"/>
		</g>
		<g>
			<path fill="#EAC47A" d="M33.191,30.481c-0.747-0.688-1.424-1.449-1.988-2.301c0.51-0.369,1.168-0.408,1.773-0.371
				c0.434,0.015,0.772,0.313,1.097,0.563c0.949,0.742,1.932,1.429,2.913,2.118c-0.494,0.55-1.234,0.813-1.947,0.896
				C34.298,31.472,33.704,30.944,33.191,30.481z M33.73,30.595c0.561,0.447,1.321,0.708,2.033,0.479
				c-0.012-0.224,0.037-0.479-0.127-0.663c-0.213-0.255-0.51-0.42-0.785-0.596c-0.387-0.231-0.762-0.487-1.192-0.643
				c-0.255-0.104-0.528-0.02-0.786,0.026C32.826,29.815,33.305,30.242,33.73,30.595z"/>
		</g>
		<g>
			<path fill="#EAC47A" d="M32.025,11.635c-0.213-0.569-0.523-1.088-0.732-1.657c0.677-0.099,1.382-0.031,2,0.278
				c0.429,0.21,0.87,0.508,1.021,0.984c0.445,1.328,0.409,2.765,0.253,4.137c-0.539-0.061-1.005-0.366-1.404-0.712
				c-0.225-0.192-0.394-0.443-0.467-0.733C32.497,13.163,32.326,12.378,32.025,11.635z M32.543,10.905
				c0.132,0.641,0.409,1.245,0.676,1.833c0.158,0.28,0.342,0.658,0.705,0.679c0.215,0.026,0.313-0.21,0.338-0.385
				c0.123-0.768-0.097-1.573-0.54-2.203c-0.226-0.309-0.593-0.591-0.991-0.501C32.491,10.408,32.513,10.704,32.543,10.905z"/>
		</g>
		<g>
			<path fill="#EAC47A" d="M35.034,21.147c-1.182-0.711-2.263-1.583-3.268-2.523c0.493-0.404,1.122-0.604,1.75-0.667
				c0.543-0.056,1.001,0.281,1.432,0.559c0.949,0.611,1.847,1.298,2.798,1.898c-0.343,0.438-0.855,0.707-1.378,0.864
				C35.931,21.396,35.43,21.403,35.034,21.147z M34.491,20.487c0.629,0.475,1.502,0.854,2.268,0.46
				c-0.021-0.306-0.144-0.605-0.416-0.761c-0.598-0.39-1.215-0.792-1.915-0.94c-0.269-0.064-0.718-0.01-0.718,0.353
				C33.81,19.998,34.186,20.24,34.491,20.487z"/>
		</g>
		<g>
			<path fill="#EAC47A" d="M36.458,29.767c-0.922-0.613-1.851-1.242-2.605-2.055c0.529-0.447,1.219-0.68,1.9-0.714
				c0.482-0.021,0.894,0.274,1.303,0.481c1.004,0.57,1.991,1.174,3.027,1.688c-0.566,0.665-1.417,1.09-2.285,1.122
				C37.293,30.313,36.858,30.026,36.458,29.767z M35.789,28.765c0.213,0.416,0.629,0.688,1.028,0.91
				c0.443,0.229,0.929,0.458,1.437,0.405c0.272-0.04,0.653-0.206,0.532-0.546c-0.181-0.402-0.637-0.564-0.996-0.762
				c-0.535-0.227-1.07-0.558-1.67-0.516C35.874,28.256,35.653,28.536,35.789,28.765z"/>
		</g>
		<path fill="#EAC47A" d="M35.815,18.858c-0.441-0.356-0.885-0.709-1.299-1.094c0.343-0.307,0.752-0.519,1.181-0.677
			c0.295,0.242,0.637,0.416,1.009,0.489c0.052,0.212,0.11,0.416,0.152,0.623c-0.064,0.134-0.228,0.252-0.167,0.414
			c0.171,0.436,0.619,0.658,1.026,0.821c0.284,0.132,0.563,0.283,0.864,0.367c0.002,0.139,0.006,0.28,0.016,0.417
			c-0.313-0.05-0.615-0.148-0.898-0.307C37.069,19.568,36.383,19.313,35.815,18.858z"/>
		<g>
			<path fill="#EAC47A" d="M34.988,13.962c0.024-0.944-0.157-1.866-0.272-2.802c0.881,0.125,1.7,0.607,2.24,1.307
				c0.424,0.585,0.277,1.351,0.305,2.024c0.025,0.999-0.355,1.938-0.65,2.878c-0.604-0.269-1.092-0.752-1.437-1.316
				C34.862,15.405,35.04,14.657,34.988,13.962z M35.698,14.128c0.055,0.328,0.125,0.681,0.364,0.931
				c0.16,0.162,0.468,0.122,0.564-0.084c0.182-0.378,0.223-0.804,0.244-1.213c0.021-0.599-0.071-1.262-0.508-1.704
				c-0.172-0.217-0.465-0.127-0.701-0.145C35.494,12.643,35.597,13.396,35.698,14.128z"/>
		</g>
		<g>
			<path fill="#EAC47A" d="M39.283,28.455c-0.944-0.53-1.887-1.065-2.784-1.677c0.432-0.404,0.961-0.688,1.531-0.854
				c0.35-0.101,0.74-0.131,1.085,0.015c0.86,0.354,1.663,0.828,2.472,1.287c0.385,0.209,0.774,0.418,1.135,0.672
				c-0.452,0.571-1.126,0.961-1.842,1.09C40.289,29.083,39.78,28.71,39.283,28.455z M38.559,27.614
				c0.232,0.357,0.621,0.568,0.984,0.773c0.55,0.283,1.225,0.5,1.83,0.266c0.244-0.086,0.35-0.422,0.121-0.586
				c-0.58-0.563-1.393-0.803-2.16-0.979C39.011,27.009,38.35,27.179,38.559,27.614z"/>
		</g>
		<g>
			<path fill="#EAC47A" d="M37.152,18.14c-0.271-0.569-0.028-1.204,0.042-1.795c0.207-0.993,0.424-1.988,0.467-3.004
				c0.746,0.125,1.323,0.703,1.699,1.325c0.35,0.609,0.127,1.328-0.021,1.961c-0.23,0.992-0.544,1.969-0.87,2.937
				C37.852,19.304,37.428,18.73,37.152,18.14z M37.966,16.663c0.023,0.336,0.232,0.896,0.667,0.738
				c0.239-0.19,0.324-0.505,0.427-0.783c0.188-0.634,0.27-1.338,0.056-1.981c-0.104-0.239-0.345-0.615-0.653-0.438
				c-0.283,0.175-0.364,0.545-0.425,0.856C37.982,15.583,37.925,16.125,37.966,16.663z"/>
		</g>
		<g>
			<path fill="#EAC47A" d="M38.9,20.367c-0.195-0.499-0.034-1.032,0.098-1.52c0.303-1.07,0.609-2.14,0.898-3.214
				c0.581,0.174,0.998,0.659,1.318,1.15c0.252,0.39,0.398,0.87,0.283,1.33c-0.317,1.312-0.794,2.582-1.25,3.851
				C39.607,21.642,39.155,21.026,38.9,20.367z M39.929,19.414c0.035,0.136,0.096,0.269,0.189,0.376
				c0.164,0.034,0.379,0.052,0.484-0.109c0.365-0.457,0.517-1.042,0.6-1.611c0.047-0.427,0.09-0.909-0.158-1.286
				c-0.117-0.201-0.451-0.286-0.609-0.094c-0.244,0.298-0.331,0.689-0.412,1.052C39.913,18.29,39.811,18.858,39.929,19.414z"/>
		</g>
		<g>
			<path fill="#EAC47A" d="M42.187,27.269c-1.028-0.515-2.042-1.059-3.02-1.656c0.417-0.537,1.055-0.85,1.697-1.022
				c0.684-0.188,1.314,0.238,1.908,0.5c0.895,0.461,1.801,0.902,2.62,1.486c-0.435,0.584-1.112,0.929-1.817,1.063
				C43.078,27.733,42.618,27.476,42.187,27.269z M41.292,26.216c0.248,0.461,0.76,0.686,1.207,0.914
				c0.425,0.184,0.883,0.317,1.349,0.296c0.263-0.026,0.537-0.256,0.511-0.538c-0.369-0.521-1.004-0.77-1.588-0.967
				c-0.414-0.134-0.87-0.286-1.291-0.094C41.327,25.881,41.21,26.06,41.292,26.216z"/>
		</g>
		<g>
			<path fill="#EAC47A" d="M40.143,15.425c0.747-0.79,2.021-1.31,3.045-0.746c1.113,0.569,2.237,1.128,3.273,1.824
				c-0.51,0.601-1.244,0.988-2.017,1.095c-0.416,0.063-0.799-0.143-1.155-0.322C42.213,16.705,41.14,16.125,40.143,15.425z
				 M42.168,16.167c0.685,0.681,1.598,1.211,2.597,1.198c0.259,0.018,0.585-0.227,0.493-0.511c-0.088-0.288-0.385-0.429-0.621-0.582
				c-0.638-0.345-1.363-0.681-2.105-0.558C42.28,15.727,42.245,15.987,42.168,16.167z"/>
		</g>
		<g>
			<path fill="#EAC47A" d="M41.596,24.147c-0.473-0.465-0.872-1.025-1.029-1.682c-0.088-0.4,0.08-0.802,0.179-1.188
				c0.325-1.088,0.715-2.163,1.104-3.229c0.67,0.372,1.244,0.985,1.426,1.747c0.126,0.57-0.123,1.128-0.297,1.661
				c-0.199,0.577-0.389,1.159-0.564,1.742C42.308,23.634,41.879,23.844,41.596,24.147z M41.719,21.878
				c0.061,0.237,0.298,0.489,0.562,0.372c0.516-0.515,0.673-1.271,0.796-1.963c0.087-0.447-0.046-0.966-0.454-1.22
				c-0.346-0.054-0.497,0.363-0.61,0.623C41.795,20.386,41.54,21.14,41.719,21.878z"/>
		</g>
		<path fill="#EAC47A" d="M41.829,17.809c-0.096-0.431-0.229-0.842-0.395-1.249c0.734,0.39,1.441,0.818,2.149,1.244
			c-0.189,0.289-0.443,0.513-0.733,0.694C42.541,18.226,42.209,17.971,41.829,17.809z"/>
		<g>
			<path fill="#EAC47A" d="M41.869,24.272c0.318-0.473,0.849-0.728,1.366-0.92c0.38-0.117,0.796-0.203,1.186-0.063
				c1.053,0.381,1.965,1.044,2.924,1.606c0.235,0.14,0.443,0.313,0.662,0.479c-0.452,0.578-1.153,0.914-1.876,0.975
				c-0.355-0.008-0.687-0.166-1.001-0.322C44.031,25.467,42.95,24.869,41.869,24.272z M45.018,25.683
				c0.529,0.252,1.119,0.605,1.723,0.395c0.295-0.077,0.449-0.569,0.158-0.739c-0.604-0.43-1.278-0.771-2.011-0.917
				c-0.315-0.074-0.627,0.044-0.924,0.146C44.004,25.146,44.573,25.431,45.018,25.683z"/>
		</g>
		<path fill="#EAC47A" d="M42.691,23.284c0.223-0.95,0.587-1.857,0.871-2.793c0.761,0.291,1.283,1.04,1.49,1.806
			c-0.02-0.024-0.063-0.078-0.08-0.104c-0.212-0.239-0.375-0.726-0.774-0.646c-0.407,0.319-0.485,0.875-0.604,1.347
			c0.132,0.008,0.273,0.025,0.41,0.034C43.555,22.981,43.111,23.108,42.691,23.284z"/>
		<path fill="#EAC47A" d="M42.894,14.187c0.46-0.59,1.201-0.914,1.919-1.052c0.389-0.079,0.773,0.068,1.114,0.237
			c1.11,0.568,2.159,1.241,3.176,1.961c-0.595,0.693-1.56,1.137-2.478,0.945c-0.217-0.045-0.359-0.22-0.51-0.361
			c0.475,0.02,0.931,0.173,1.403,0.19c0.212,0.014,0.468-0.12,0.47-0.361c-0.014-0.308-0.289-0.517-0.522-0.683
			c-0.479-0.299-1.007-0.546-1.56-0.649c-0.381-0.08-0.757,0.064-1.108,0.189c0.305,0.523,0.828,0.837,1.228,1.271
			C44.947,15.377,43.965,14.702,42.894,14.187z"/>
		<path fill="#EAC47A" d="M44.771,27.985c-0.078-0.121-0.225-0.271-0.133-0.42c0.262-0.233,0.561-0.435,0.836-0.65
			c0.188,0.036,0.373,0.089,0.568,0.089c0.177-0.086,0.3-0.258,0.449-0.387c0.057-0.029,0.173-0.091,0.231-0.122
			c-0.017,0.305-0.048,0.607-0.103,0.91c-0.112,0.615-0.106,1.248-0.173,1.867C45.759,29.058,45.207,28.549,44.771,27.985z"/>
		<g>
			<path fill="#EAC47A" d="M46.006,23.831c-0.45-0.318-0.927-0.596-1.353-0.95c0.497-0.563,1.238-0.848,1.965-0.965
				c0.458-0.087,0.885,0.149,1.277,0.351c0.604,0.336,1.224,0.659,1.764,1.094c0.345,0.271,0.725,0.496,1.055,0.791
				c0.076,0.06,0.168,0.203,0.06,0.273c-0.461,0.422-1.079,0.639-1.688,0.729c-0.492,0.08-0.933-0.186-1.36-0.391
				C47.146,24.461,46.536,24.21,46.006,23.831z M46.898,23.565c0.153,0.297,0.44,0.494,0.703,0.688
				c0.51,0.375,1.119,0.671,1.763,0.667c0.192-0.021,0.46-0.104,0.462-0.338c0.016-0.192-0.118-0.358-0.25-0.492
				c-0.491-0.479-1.129-0.791-1.794-0.965c-0.251-0.063-0.544-0.063-0.771,0.097C46.9,23.289,46.819,23.44,46.898,23.565z"/>
		</g>
		<g>
			<path fill="#EAC47A" d="M45.646,12.882c0.517-0.571,1.27-0.857,2.016-0.985c0.333-0.056,0.648,0.092,0.941,0.235
				c1.151,0.605,2.212,1.362,3.199,2.203c-0.496,0.511-1.192,0.817-1.899,0.855c-0.455,0.034-0.84-0.239-1.213-0.447
				C47.67,14.124,46.646,13.523,45.646,12.882z M47.793,13.603c0.1,0.275,0.35,0.459,0.58,0.625
				c0.473,0.315,0.977,0.604,1.541,0.721c0.266,0.044,0.597,0.04,0.793-0.182c0.138-0.416-0.303-0.705-0.592-0.916
				c-0.598-0.359-1.259-0.774-1.984-0.675C47.925,13.179,47.689,13.386,47.793,13.603z"/>
		</g>
		<path fill="#EAC47A" d="M47.367,30.08c-0.31-0.322-0.438-0.767-0.446-1.2c-0.021-0.765-0.039-1.531,0.111-2.285
			c0.075-0.365,0.502-0.445,0.786-0.602c-0.274,0.773-0.317,1.633-0.091,2.425c0.091,0.294,0.307,0.642,0.655,0.619
			c0.202,0.026,0.249-0.197,0.302-0.343c0.108-0.398,0.092-0.819,0.092-1.233c-0.02-0.425-0.039-0.877-0.243-1.264
			c-0.138-0.233-0.435-0.271-0.658-0.374c0.119-0.061,0.237-0.124,0.362-0.164c0.398,0.309,0.764,0.736,0.844,1.251
			c0.111,1.446,0.303,2.883,0.559,4.312C48.775,31.136,47.958,30.711,47.367,30.08z"/>
		<g>
			<path fill="#EAC47A" d="M47.663,21.619c0.517-0.542,1.264-0.779,1.987-0.849c0.36-0.047,0.719,0.056,1.018,0.244
				c0.807,0.489,1.521,1.116,2.185,1.778c0.265,0.267,0.547,0.519,0.733,0.835c-0.235,0.293-0.616,0.41-0.966,0.503
				c-0.517,0.125-1.112,0.17-1.573-0.139C49.923,23.194,48.808,22.379,47.663,21.619z M49.763,22.599
				c0.287,0.358,0.657,0.639,1.027,0.91c0.423,0.277,0.892,0.559,1.421,0.572c0.334-0.014,0.459-0.461,0.257-0.7
				c-0.46-0.647-1.19-1.032-1.906-1.339C50.217,21.888,49.594,22.181,49.763,22.599z"/>
		</g>
		<g>
			<path fill="#EAC47A" d="M48.542,11.659c0.352-0.397,0.859-0.611,1.363-0.754c0.539-0.132,1.154-0.146,1.63,0.188
				c1.076,0.701,2.051,1.574,2.852,2.583c-0.711,0.609-1.883,0.81-2.655,0.197C50.688,13.107,49.607,12.396,48.542,11.659z
				 M51.118,13.104c0.448,0.362,0.93,0.714,1.483,0.902c0.301,0.105,0.617,0.014,0.91-0.072c-0.078-0.723-0.723-1.157-1.297-1.484
				c-0.373-0.202-0.776-0.45-1.216-0.385c-0.162,0.041-0.401,0.139-0.366,0.345C50.641,12.714,50.915,12.913,51.118,13.104z"/>
		</g>
		<g>
			<path fill="#EAC47A" d="M49.742,30.179c-0.292-1.033-0.337-2.123-0.247-3.193c0.504,0.104,1.053,0.203,1.438,0.574
				c0.358,0.315,0.46,0.801,0.618,1.229c0.378,1.128,0.998,2.162,1.73,3.089c-0.838,0.316-1.815,0.188-2.593-0.242
				C50.146,31.349,49.915,30.733,49.742,30.179z M50.716,30.11c0.213,0.287,0.577,0.291,0.901,0.261
				c0.014-0.42-0.063-0.841-0.212-1.245c-0.192-0.544-0.331-1.143-0.739-1.574c-0.186-0.21-0.577-0.09-0.606,0.193
				C49.923,28.58,50.19,29.462,50.716,30.11z"/>
		</g>
		<g>
			<path fill="#EAC47A" d="M51.779,21.466c-0.341-0.326-0.786-0.555-1.03-0.979c0.665-0.338,1.401-0.594,2.16-0.53
				c0.433,0.004,0.843,0.192,1.153,0.493c0.942,0.869,1.776,1.857,2.575,2.863c-0.755,0.432-1.675,0.486-2.505,0.283
				c-0.171-0.031-0.305-0.152-0.426-0.271C53.074,22.7,52.433,22.075,51.779,21.466z M52.792,21.835
				c0.215,0.41,0.563,0.73,0.893,1.045c0.354,0.313,0.741,0.665,1.238,0.686c0.184,0.019,0.429-0.047,0.465-0.26
				c0.025-0.277-0.161-0.515-0.313-0.728c-0.352-0.419-0.766-0.784-1.227-1.082c-0.312-0.21-0.722-0.244-1.066-0.112
				C52.741,21.534,52.717,21.699,52.792,21.835z"/>
		</g>
		<g>
			<path fill="#EAC47A" d="M53.619,31.63c-1.043-0.947-1.719-2.248-1.996-3.625c0.78-0.17,1.728-0.123,2.267,0.544
				c0.857,1.058,1.779,2.069,2.841,2.933c-0.668,0.453-1.494,0.604-2.279,0.5C54.146,31.94,53.848,31.834,53.619,31.63z M53,29.737
				c0.325,0.388,0.705,0.812,1.238,0.873c0.219,0.056,0.374-0.149,0.533-0.269c-0.149-0.381-0.318-0.757-0.595-1.059
				c-0.349-0.392-0.666-0.834-1.137-1.083c-0.188-0.096-0.563-0.109-0.582,0.164C52.378,28.888,52.688,29.354,53,29.737z"/>
		</g>
		<g>
			<path fill="#EAC47A" d="M53.996,12.768c-0.868-0.658-1.656-1.411-2.414-2.189c0.662-0.489,1.516-0.654,2.328-0.591
				c0.461,0.04,0.822,0.367,1.166,0.658c0.871,0.819,1.603,1.818,2.006,2.961c-0.535,0.175-1.112,0.31-1.668,0.141
				C54.815,13.636,54.451,13.122,53.996,12.768z M53.774,11.783c0.129,0.362,0.419,0.625,0.672,0.9
				c0.365,0.376,0.741,0.815,1.278,0.929c0.249,0.07,0.598-0.123,0.487-0.407c-0.145-0.57-0.564-1.025-0.98-1.417
				c-0.375-0.354-0.953-0.627-1.455-0.376C53.746,11.536,53.738,11.662,53.774,11.783z"/>
		</g>
		<g>
			<path fill="#EAC47A" d="M55.236,29.787c-0.467-0.472-0.87-1.002-1.234-1.556c0.476-0.277,1.014-0.479,1.568-0.467
				c0.434,0.016,0.818,0.238,1.138,0.514c0.962,0.82,2.015,1.548,3.165,2.078c-0.183,0.393-0.629,0.559-0.996,0.729
				c-0.658,0.249-1.464,0.41-2.102,0.023C56.19,30.757,55.708,30.269,55.236,29.787z M55.055,28.383
				c0.152,0.524,0.606,0.877,1.037,1.183c0.418,0.281,0.93,0.594,1.451,0.408c0.184-0.021,0.305-0.261,0.189-0.412
				c-0.254-0.438-0.65-0.765-1.054-1.063c-0.378-0.271-0.802-0.554-1.282-0.542C55.182,27.951,54.942,28.155,55.055,28.383z"/>
		</g>
		<g>
			<path fill="#EAC47A" d="M56.712,22.957c-0.902-1.011-1.738-2.086-2.719-3.024c0.68-0.401,1.506-0.461,2.267-0.329
				c0.319,0.049,0.579,0.25,0.808,0.467c0.549,0.511,0.982,1.126,1.446,1.709c0.343,0.447,0.713,0.879,0.983,1.381
				C58.641,23.579,57.409,23.75,56.712,22.957z M57.063,22.974c0.365,0.328,0.882,0.414,1.336,0.23
				c-0.011-0.612-0.479-1.048-0.859-1.46c-0.377-0.386-0.838-0.771-1.399-0.797c-0.172-0.005-0.416,0.14-0.337,0.34
				C55.962,21.995,56.535,22.517,57.063,22.974z"/>
		</g>
		<g>
			<path fill="#EAC47A" d="M56.869,12.458c-0.48-0.922-1.158-1.719-1.834-2.511c0.77-0.416,1.729-0.367,2.526-0.067
				c0.497,0.166,0.832,0.6,1.056,1.059c0.393,0.794,0.646,1.682,0.603,2.57c-0.011,0.289-0.022,0.573-0.034,0.862
				c-0.586,0.02-1.186-0.184-1.602-0.6C57.267,13.381,57.122,12.888,56.869,12.458z M57.287,12.768
				c0.242,0.442,0.482,0.908,0.836,1.272c0.36,0,0.496-0.397,0.655-0.652c-0.251-0.529-0.355-1.13-0.705-1.61
				c-0.198-0.282-0.472-0.578-0.837-0.604c-0.191-0.014-0.44,0.108-0.412,0.331C56.885,11.954,57.095,12.365,57.287,12.768z"/>
		</g>
		<g>
			<path fill="#EAC47A" d="M59.188,29.667c-0.985-0.482-1.86-1.163-2.673-1.889c0.533-0.455,1.195-0.795,1.909-0.799
				c0.475-0.021,0.885,0.256,1.301,0.438c1.017,0.466,2.079,0.846,3.185,1.03c-0.324,0.784-1.127,1.26-1.893,1.532
				C60.394,30.243,59.74,29.951,59.188,29.667z M57.641,27.542c0.077,0.407,0.462,0.645,0.793,0.833
				c0.453,0.226,0.898,0.563,1.43,0.505c0.287-0.021,0.724-0.072,0.76-0.432c-0.132-0.393-0.548-0.563-0.885-0.749
				c-0.625-0.31-1.33-0.69-2.047-0.47C57.654,27.327,57.629,27.437,57.641,27.542z"/>
		</g>
		<g>
			<path fill="#EAC47A" d="M59.242,22.333c-0.717-0.895-1.451-1.775-2.129-2.698c0.709-0.336,1.547-0.43,2.299-0.179
				c0.32,0.103,0.563,0.345,0.79,0.589c0.554,0.62,1.079,1.269,1.567,1.946c0.276,0.357,0.194,0.832,0.264,1.249
				c-0.618,0.147-1.291,0.215-1.883-0.065C59.764,23.002,59.508,22.644,59.242,22.333z M58.864,21.146
				c0.134,0.504,0.48,0.912,0.821,1.291c0.36,0.375,0.811,0.785,1.365,0.742c0.213,0.012,0.421-0.214,0.329-0.421
				c-0.168-0.513-0.548-0.92-0.921-1.298c-0.342-0.314-0.727-0.648-1.203-0.709C59.031,20.709,58.794,20.911,58.864,21.146z"/>
		</g>
		<g>
			<path fill="#EAC47A" d="M59.481,13.694c0.023-1.2-0.314-2.381-0.781-3.478c0.989-0.046,1.957,0.411,2.623,1.132
				c0.506,0.558,0.506,1.371,0.39,2.07c-0.13,0.969-0.429,1.908-0.899,2.766c-0.48-0.313-0.937-0.697-1.201-1.218
				C59.416,14.572,59.492,14.12,59.481,13.694z M59.816,14.935c0.056,0.152,0.13,0.362,0.329,0.336
				c0.35,0.026,0.497-0.354,0.586-0.627c0.18-0.638,0.186-1.352-0.058-1.977c-0.108-0.322-0.441-0.432-0.722-0.543
				c-0.084,0.089-0.165,0.183-0.248,0.28C59.873,13.238,59.56,14.102,59.816,14.935z"/>
		</g>
		<g>
			<path fill="#EAC47A" d="M59.117,26.767c0.257-0.553,0.775-0.949,1.342-1.154c0.697-0.161,1.4,0.135,2.1,0.146
				c0.91,0.083,1.807-0.085,2.699-0.232c-0.106,0.926-0.708,1.732-1.453,2.26c-0.587,0.396-1.336,0.232-1.984,0.125
				C60.867,27.681,59.951,27.282,59.117,26.767z M60.021,26.467c0.07,0.12,0.189,0.193,0.304,0.255
				c0.593,0.326,1.303,0.422,1.973,0.334c0.305-0.035,0.629-0.195,0.739-0.505c0.07-0.229-0.173-0.392-0.365-0.448
				c-0.542-0.166-1.113-0.219-1.673-0.266c-0.32-0.005-0.7-0.046-0.949,0.199C59.924,26.146,59.958,26.337,60.021,26.467z"/>
		</g>
		<path fill="#EAC47A" d="M62.031,21.869c-0.646-0.765-1.231-1.589-1.844-2.387c0.457-0.3,1.016-0.291,1.541-0.286
			c-0.01,0.492,0.214,0.948,0.241,1.428c-0.063,0.316-0.012,0.636,0.134,0.922C62.078,21.659,62.053,21.765,62.031,21.869z"/>
		<g>
			<path fill="#EAC47A" d="M61.07,25.254c0.158-0.754,0.609-1.571,1.411-1.764c0.418-0.116,0.83-0.265,1.22-0.464
				c0.842-0.446,1.715-0.844,2.507-1.375c0.255,0.891,0.095,1.861-0.352,2.662c-0.167,0.287-0.421,0.521-0.718,0.668
				C63.869,25.556,62.41,25.599,61.07,25.254z M61.89,24.759c0.656,0.235,1.386,0.083,2.02-0.162
				c0.425-0.166,0.63-0.601,0.762-1.008c-0.194-0.094-0.41-0.175-0.63-0.134c-0.608,0.077-1.208,0.228-1.783,0.438
				c-0.227,0.098-0.493,0.188-0.617,0.42C61.576,24.495,61.708,24.712,61.89,24.759z"/>
		</g>
		<g>
			<path fill="#EAC47A" d="M61.054,16.927c-0.11-0.582,0.248-1.104,0.437-1.63c0.404-1.02,0.612-2.118,0.6-3.214
				c0.837,0.361,1.494,1.097,1.803,1.952c0.266,0.672-0.053,1.381-0.349,1.988c-0.444,0.864-0.956,1.714-1.631,2.422
				C61.472,18.05,61.169,17.503,61.054,16.927z M61.302,17.235c0.092,0.153,0.304,0.288,0.483,0.183
				c0.324-0.168,0.496-0.521,0.65-0.836c0.238-0.529,0.471-1.11,0.348-1.704c-0.049-0.243-0.273-0.586-0.559-0.422
				c-0.404,0.327-0.547,0.854-0.73,1.32C61.344,16.237,61.116,16.754,61.302,17.235z"/>
		</g>
		<g>
			<path fill="#EAC47A" d="M62.506,20.911c-0.422-0.6-0.627-1.389-0.403-2.1c0.345-0.649,0.808-1.227,1.169-1.864
				c0.414-0.621,0.696-1.314,1.043-1.968c0.611,0.411,0.877,1.146,1.061,1.826c0.126,0.461,0.029,0.95-0.219,1.351
				C64.51,19.264,63.6,20.233,62.506,20.911z M62.256,19.816c0.097,0.163,0.355,0.205,0.519,0.112
				c0.39-0.21,0.662-0.573,0.913-0.929c0.286-0.425,0.538-0.937,0.438-1.465c-0.033-0.193-0.191-0.457-0.42-0.34
				c-0.46,0.23-0.714,0.709-1.002,1.114C62.406,18.744,62.094,19.272,62.256,19.816z"/>
		</g>
		<g>
			<path fill="#EAC47A" d="M62.302,23.149c-0.243-0.73-0.077-1.646,0.573-2.109c1.07-0.818,1.963-1.838,2.76-2.917
				c0.457,0.501,0.609,1.204,0.643,1.866c0.027,0.515-0.127,1.051-0.502,1.422C64.853,22.353,63.6,22.957,62.302,23.149z
				 M62.45,22.299c0.192,0.242,0.589,0.134,0.845,0.05c0.585-0.25,1.123-0.668,1.447-1.219c0.152-0.281,0.262-0.723-0.057-0.936
				c-0.336-0.019-0.617,0.207-0.877,0.386c-0.453,0.34-0.898,0.698-1.263,1.132C62.393,21.869,62.367,22.108,62.45,22.299z"/>
		</g>
	</g>
	<g>
		<path fill="#6F6F6F" d="M66.553,22.449l-0.09-0.55c0.01-0.021,0-0.03-0.01-0.051l-0.12-0.319c-0.01-0.011-0.01-0.021-0.02-0.03
			c-0.02-0.03-0.03-0.06-0.03-0.1c-0.01-0.011-0.01-0.011-0.01-0.021c0-0.07,0.02-0.149,0.05-0.21c0.01-0.04,0.02-0.07,0.03-0.1
			c0.02-0.03,0.03-0.061,0.04-0.09c0.03-0.181,0.06-0.381,0.09-0.57c0.01-0.07,0.02-0.15,0.03-0.22c0.06-0.34,0-0.67-0.05-0.891
			c-0.01-0.01-0.02-0.03-0.03-0.04c0.01,0,0.01-0.01,0.02,0c-0.04-0.15-0.08-0.24-0.08-0.24c-0.15-0.45-0.32-0.93-0.75-1.19
			c0.06-0.55,0.03-1.12-0.18-1.65c-0.24-0.59-0.57-1.22-1.17-1.52c-0.08-1.06-0.78-2-1.64-2.59c-0.22-0.15-0.48-0.2-0.73-0.23
			c-0.31-0.69-0.9-1.22-1.59-1.52c-0.59-0.28-1.3-0.49-1.95-0.24c-0.61-0.54-1.46-0.67-2.26-0.67c-0.51,0.06-1.11,0.11-1.45,0.55
			c-0.37-0.19-0.8-0.29-1.22-0.24c-0.77,0.07-1.62,0.24-2.13,0.88c-0.46-0.04-0.93-0.1-1.38,0.04c-0.63,0.2-1.32,0.44-1.66,1.05
			c-0.87-0.11-1.75,0.17-2.44,0.7c-0.18,0.13-0.31,0.31-0.42,0.51c-0.91-0.09-1.78,0.29-2.47,0.85c-0.15,0.12-0.22,0.31-0.29,0.48
			c-1.04-0.12-2.14,0.33-2.78,1.16c-0.21-1.19-1.23-2.16-2.4-2.42c-0.19-0.48-0.48-0.91-0.88-1.24c-0.59-0.48-1.33-0.86-2.11-0.78
			c-0.3-0.45-0.76-0.8-1.27-1c-0.72-0.26-1.52-0.38-2.25-0.09c-0.34-0.24-0.73-0.41-1.14-0.45c-0.8-0.1-1.67-0.05-2.35,0.43
			c-0.36,0.28-0.82-0.01-1.23,0.09c-0.91,0.16-1.85,0.63-2.33,1.46c-1.27,0.09-2.42,1.08-2.75,2.31c-0.49,0.21-0.93,0.53-1.25,0.98
			c-0.49,0.62-0.67,1.42-0.73,2.19c-0.14,0.2-0.32,0.36-0.46,0.56c-0.28,0.4-0.41,0.88-0.49,1.36c-0.52,0.02-1.11,0.02-1.51,0.43
			c-0.38-0.24-0.82-0.39-1.27-0.41c-0.61-0.02-1.29-0.04-1.78,0.38c-0.44-0.25-0.94-0.39-1.45-0.38c-0.53,0-1.14-0.02-1.55,0.37
			c-0.72-0.44-1.61-0.45-2.42-0.31c-0.25,0.03-0.47,0.16-0.66,0.33c-0.52-0.37-1.2-0.43-1.83-0.41c-0.43,0.02-0.89,0.08-1.23,0.38
			c-0.54-0.32-1.19-0.44-1.82-0.41c-0.45,0.04-0.95,0.1-1.28,0.45c-0.4-0.31-0.9-0.4-1.39-0.46c0,0.06,0,0.19,0.01,0.26
			c0.44,0.05,0.91,0.13,1.24,0.45c0.45,0.44,0.81,0.97,1.21,1.46c0.47,0.66,0.96,1.29,1.38,1.97c-0.75,0.28-1.61,0.37-2.37,0.07
			c-0.64-0.28-0.92-1-1.49-1.38c0.05,0.47,0.32,0.86,0.6,1.21c-0.23,0.16-0.44,0.32-0.62,0.51c0.36-0.04,0.71-0.17,1.03-0.35
			c0.31,0.17,0.64,0.35,1.01,0.399c0.71,0.091,1.5,0.07,2.11-0.369c0.91,0.569,2.16,0.59,3.06,0.01c0.93,0.56,2.18,0.58,3.12,0.04
			c0.36,0.279,0.84,0.38,1.29,0.38c0.58,0,1.2-0.05,1.68-0.41c0.33,0.22,0.7,0.37,1.1,0.39c0.66,0.051,1.37,0.021,1.93-0.38
			c0.66,0.44,1.49,0.46,2.25,0.37c0.16,0.33,0.38,0.63,0.66,0.86c0.1,0.319,0,0.689,0.11,1.01c0.2,0.65,0.52,1.29,1.03,1.74
			c0.23,0.2,0.51,0.34,0.75,0.529c0.15,0.24,0.15,0.561,0.33,0.79c0.52,0.771,1.33,1.381,2.27,1.521c0.28,0.22,0.43,0.6,0.74,0.81
			c0.69,0.54,1.63,0.891,2.52,0.7c0.88,0.91,2.35,1.09,3.49,0.61c0.14-0.08,0.27,0.02,0.39,0.069c0.52,0.25,1.12,0.25,1.68,0.19
			c0.58-0.08,1.17-0.28,1.59-0.71c1.11,0.28,2.44-0.06,3.16-0.99c1.12,0.15,2.33-0.35,3-1.27c0.79,0.12,1.55-0.26,2.16-0.73
			c0.23-0.17,0.36-0.439,0.59-0.62c0.43-0.01,0.87-0.06,1.29-0.199c0.23,0.39,0.5,0.779,0.84,1.09c0.43,0.39,0.95,0.779,1.56,0.75
			c0.18,0.46,0.49,0.85,0.89,1.12c0.65,0.47,1.46,0.899,2.28,0.68c0.3,0.33,0.67,0.59,1.1,0.729c0.83,0.25,1.79,0.391,2.58-0.09
			c0.9,0.38,1.93,0.32,2.83-0.02c0.23-0.09,0.39-0.28,0.6-0.4c0.62,0.08,1.27,0.061,1.85-0.21c0.52-0.22,1.14-0.45,1.33-1.02
			c0.65,0.01,1.29-0.19,1.82-0.54c0.54-0.36,1.09-0.811,1.21-1.48c1.09-0.31,1.9-1.319,2.23-2.38c0.09-0.25,0.06-0.52-0.02-0.77
			c0.6-0.42,0.9-1.11,1.04-1.811l0.04-0.24c0.02-0.18,0.03-0.359,0.05-0.529C66.563,22.529,66.553,22.489,66.553,22.449z
			 M65.632,18.119c0.46,0.5,0.61,1.21,0.65,1.87c0.02,0.51-0.13,1.05-0.51,1.42c-0.92,0.939-2.17,1.55-3.47,1.74
			c-0.24-0.73-0.08-1.641,0.57-2.11C63.942,20.219,64.833,19.199,65.632,18.119z M22.342,19.189c0.39,0.12,0.65,0.46,0.9,0.76
			c0.65,0.81,1.24,1.66,1.84,2.51c0.09,0.14,0.17,0.28,0.2,0.45c-0.64,0.32-1.4,0.34-2.08,0.149c-0.48-0.14-0.79-0.55-1.08-0.939
			c-0.7-0.93-1.4-1.87-2-2.89C20.842,18.999,21.623,18.979,22.342,19.189z M22.152,18.859c0.03-0.15,0.38-0.08,0.34,0.08
			C22.393,19.019,22.223,18.969,22.152,18.859z M28.283,21.979c-0.73-0.87-1.38-1.82-2.05-2.74c0.61-0.26,1.31-0.27,1.96-0.15
			c0.4,0.06,0.7,0.32,0.96,0.6c0.86,0.92,1.74,1.8,2.65,2.66c-0.42,0.36-0.96,0.48-1.49,0.58c-0.37,0.07-0.74-0.01-1.09-0.14
			C28.822,22.639,28.553,22.289,28.283,21.979z M28.623,22.809c-0.66,0.36-1.44,0.421-2.17,0.28c-0.4-0.07-0.75-0.32-0.99-0.64
			c-0.82-1.021-1.59-2.101-2.3-3.2c0.71-0.26,1.5-0.27,2.23-0.09c0.51,0.14,0.82,0.6,1.14,0.99
			C27.212,21.039,27.893,21.949,28.623,22.809z M31.143,21.389c-0.75-0.699-1.52-1.399-2.08-2.27c0.61-0.35,1.33-0.48,2.03-0.37
			c0.38,0.08,0.68,0.34,0.99,0.56c0.92,0.74,1.86,1.45,2.79,2.18c-0.58,0.58-1.43,0.85-2.24,0.8
			C32.013,22.249,31.603,21.739,31.143,21.389z M31.763,18.619c0.5-0.4,1.13-0.6,1.75-0.66c0.55-0.06,1,0.28,1.44,0.56
			c0.94,0.61,1.84,1.29,2.79,1.9c-0.34,0.43-0.85,0.7-1.37,0.86c-0.44,0.12-0.94,0.12-1.34-0.13
			C33.853,20.439,32.772,19.569,31.763,18.619z M37.703,19.909c-0.63-0.34-1.32-0.6-1.89-1.05c-0.44-0.36-0.88-0.71-1.3-1.1
			c0.35-0.3,0.76-0.51,1.19-0.67c0.29,0.24,0.63,0.41,1,0.49c0.06,0.21,0.11,0.41,0.16,0.62c0.24,0.44,0.57,0.82,0.86,1.23
			c0.28,0.14,0.56,0.29,0.86,0.37c0,0.14,0,0.28,0.02,0.42C38.283,20.169,37.982,20.069,37.703,19.909z M34.292,17.809
			c-0.62-0.15-1.27-0.06-1.88,0.16c-0.34,0.13-0.68,0.32-0.88,0.64c-0.73-0.25-1.53-0.15-2.25,0.12c-0.17,0.08-0.31,0.21-0.45,0.34
			c-0.66-0.35-1.43-0.38-2.15-0.24c-0.27,0.05-0.51,0.2-0.73,0.36c-0.72-0.44-1.6-0.49-2.41-0.33c-0.26,0.05-0.46,0.22-0.67,0.36
			c-0.09-0.22-0.18-0.46-0.31-0.67c0.58-0.22,0.92-0.79,1.17-1.32c0.13-0.24,0.12-0.52,0.12-0.79c0.27-0.06,0.56-0.15,0.79-0.33
			c0.44-0.33,0.92-0.71,1.02-1.3c0.8,0.01,1.68-0.28,2.18-0.95c0.61,0.2,1.27,0.19,1.89,0.03c0.18-0.05,0.33-0.18,0.47-0.29
			c0.59,0.58,1.53,0.88,2.34,0.62c0.28,0.57,0.82,0.98,1.39,1.24c0.25,0.12,0.53,0.13,0.81,0.12c0.08,0.52,0.42,0.94,0.78,1.32
			C35.042,17.079,34.513,17.309,34.292,17.809z M25.632,23.009c0.71,0.391,1.58,0.521,2.37,0.311c0.3-0.08,0.57-0.24,0.87-0.32
			c1.06,0.37,2.36,0.2,3.2-0.59c0.8,0.3,1.69,0.08,2.41-0.32c0.26-0.13,0.48-0.33,0.67-0.55c1.13,0.21,2.34-0.26,3.02-1.18
			c0.16,0.02,0.32,0.029,0.48,0.06c0.32,0.76,0.84,1.5,1.62,1.84c0.12,0.78,0.54,1.49,1.12,2.03c-0.94,0.07-2,0.46-2.49,1.33
			c-0.8-0.061-1.59,0.24-2.25,0.7c-0.18,0.13-0.29,0.33-0.39,0.529c-0.34-0.08-0.7-0.109-1.03-0.02c-0.62,0.14-1.3,0.33-1.66,0.89
			c-0.61-0.25-1.31-0.22-1.93-0.02c-0.27,0.069-0.51,0.22-0.69,0.42c-0.53-0.39-1.21-0.55-1.86-0.54c-0.24-0.01-0.46,0.1-0.66,0.2
			c-0.56-0.641-1.42-1.12-2.29-1c-0.34-0.75-1.01-1.44-1.84-1.58c-0.12-0.72-0.48-1.4-1.04-1.87
			C24.053,23.519,24.913,23.409,25.632,23.009z M40.563,22.469c-0.09-0.399,0.08-0.8,0.18-1.189c0.33-1.09,0.72-2.16,1.11-3.23
			c0.67,0.37,1.24,0.99,1.42,1.75c0.13,0.57-0.12,1.12-0.3,1.66c-0.19,0.58-0.38,1.16-0.56,1.74c-0.1,0.43-0.53,0.64-0.82,0.95
			C41.123,23.679,40.723,23.119,40.563,22.469z M51.783,21.469c-0.34-0.33-0.79-0.56-1.03-0.979c0.66-0.34,1.4-0.59,2.16-0.53
			c0.43,0,0.84,0.19,1.15,0.49c0.94,0.87,1.77,1.859,2.57,2.859c-0.75,0.44-1.67,0.49-2.5,0.29c-0.17-0.029-0.31-0.149-0.43-0.27
			C53.072,22.699,52.433,22.079,51.783,21.469z M53.583,23.629c-0.23,0.3-0.61,0.41-0.96,0.51c-0.52,0.12-1.11,0.17-1.58-0.14
			c-1.12-0.8-2.23-1.62-3.38-2.38c0.52-0.54,1.26-0.78,1.99-0.851c0.36-0.05,0.72,0.061,1.01,0.25c0.81,0.49,1.53,1.12,2.19,1.78
			C53.123,23.059,53.402,23.309,53.583,23.629z M53.993,19.939c0.68-0.41,1.51-0.47,2.27-0.33c0.32,0.04,0.58,0.25,0.81,0.46
			c0.55,0.51,0.98,1.13,1.44,1.71c0.34,0.45,0.72,0.88,0.99,1.38c-0.86,0.42-2.09,0.59-2.79-0.2
			C55.813,21.949,54.973,20.869,53.993,19.939z M56.853,19.549c-0.86-0.4-1.87-0.34-2.73,0.03c-0.17,0.08-0.29,0.22-0.42,0.34
			c-0.85-0.37-1.81-0.18-2.63,0.16c-0.26,0.09-0.45,0.3-0.6,0.51c-0.92-0.2-1.89,0.05-2.67,0.561c-0.22,0.13-0.34,0.34-0.46,0.55
			c-0.71-0.15-1.41,0.08-2.05,0.38c-0.32-0.8-0.88-1.51-1.67-1.87c-0.03-0.56-0.28-1.08-0.62-1.51c0.35-0.22,0.63-0.52,0.88-0.84
			c0.64-0.02,1.3-0.09,1.86-0.45c0.4-0.2,0.7-0.54,0.98-0.87c0.75,0.16,1.5-0.16,2.1-0.59c0.21-0.16,0.37-0.37,0.52-0.58
			c0.98,0.15,2.07-0.16,2.69-0.97c0.96,0.28,1.98-0.04,2.74-0.66c0.75,0.39,1.75,0.44,2.49,0c0.46,0.6,1.23,0.93,1.98,0.84
			c0.16,0.82,0.79,1.47,1.53,1.8c-0.1,0.87,0.39,1.68,1.01,2.24c0.1,0.06,0.09,0.19,0.1,0.29c-0.67,0.04-1.41,0.04-1.96,0.5
			c-0.68-0.38-1.48-0.35-2.22-0.24C57.393,19.209,57.112,19.369,56.853,19.549z M42.853,18.499c-0.31-0.27-0.64-0.53-1.02-0.69
			c-0.1-0.43-0.23-0.84-0.4-1.25c0.73,0.39,1.44,0.82,2.15,1.25C43.393,18.089,43.143,18.319,42.853,18.499z M43.563,20.489
			c0.76,0.29,1.28,1.04,1.49,1.8c-0.02-0.021-0.06-0.07-0.08-0.1c-0.22,0.229-0.44,0.479-0.59,0.77c-0.12-0.01-0.25-0.02-0.38-0.03
			c-0.45,0.051-0.89,0.181-1.31,0.36C42.913,22.329,43.283,21.429,43.563,20.489z M46.623,21.919c0.45-0.08,0.88,0.15,1.27,0.36
			c0.61,0.33,1.23,0.649,1.77,1.09c0.34,0.27,0.72,0.5,1.05,0.79c0.08,0.05,0.17,0.2,0.06,0.27c-0.46,0.42-1.08,0.63-1.69,0.73
			c-0.49,0.08-0.93-0.19-1.36-0.391c-0.58-0.31-1.19-0.56-1.72-0.939c-0.45-0.32-0.92-0.59-1.35-0.94
			C45.152,22.319,45.893,22.039,46.623,21.919z M50.853,24.689c0.15-0.11,0.28-0.381,0.51-0.29c0.88,0.21,1.88-0.03,2.52-0.69
			c0.95,0.46,2.06,0.29,2.94-0.24c0.69,0.36,1.5,0.311,2.23,0.13c0.25-0.06,0.45-0.21,0.67-0.34c0.19,0.061,0.37,0.17,0.56,0.24
			c0.49,0.14,1.01,0.1,1.52,0.04c-0.49,0.46-0.95,1.05-0.96,1.75c-0.85,0.12-1.65,0.67-2,1.47c-0.83-0.12-1.71,0.17-2.32,0.75
			c-0.08,0.061-0.17,0.17-0.28,0.13c-0.82-0.229-1.77-0.08-2.42,0.49c-0.67-0.479-1.56-0.6-2.33-0.29
			c-0.47-0.74-1.37-1.09-2.22-1.09c-0.12-0.59-0.59-1-0.96-1.43C49.192,25.489,50.143,25.249,50.853,24.689z M60.152,23.169
			c-0.39-0.17-0.64-0.53-0.91-0.84c-0.72-0.89-1.45-1.771-2.13-2.7c0.71-0.33,1.55-0.42,2.3-0.17c0.32,0.1,0.56,0.34,0.79,0.58
			c0.55,0.63,1.08,1.27,1.57,1.95c0.27,0.359,0.19,0.83,0.26,1.25C61.413,23.389,60.743,23.459,60.152,23.169z M60.183,19.479
			c0.46-0.3,1.02-0.29,1.54-0.28c-0.01,0.49,0.22,0.939,0.25,1.43c0.15,0.15,0.3,0.32,0.44,0.5c-0.1,0.14-0.2,0.28-0.31,0.42
			c-0.02,0.11-0.05,0.22-0.07,0.32C61.382,21.109,60.803,20.279,60.183,19.479z M64.313,14.979c0.61,0.41,0.88,1.15,1.06,1.83
			c0.13,0.46,0.03,0.95-0.22,1.35c-0.64,1.11-1.55,2.07-2.65,2.75c-0.42-0.601-0.62-1.39-0.4-2.1c0.34-0.65,0.81-1.23,1.17-1.86
			C63.683,16.329,63.962,15.629,64.313,14.979z M62.092,12.079c0.83,0.36,1.49,1.1,1.8,1.96c0.27,0.67-0.05,1.38-0.35,1.98
			c-0.44,0.87-0.96,1.72-1.63,2.43c-0.44-0.4-0.74-0.95-0.86-1.52c-0.11-0.58,0.25-1.11,0.44-1.63
			C61.893,14.279,62.103,13.179,62.092,12.079z M61.322,11.349c0.51,0.55,0.51,1.37,0.39,2.07c-0.13,0.97-0.43,1.91-0.9,2.76
			c-0.48-0.31-0.94-0.69-1.2-1.21c-0.2-0.4-0.12-0.85-0.13-1.28c0.02-1.19-0.32-2.38-0.78-3.47
			C59.692,10.169,60.652,10.629,61.322,11.349z M57.563,9.879c0.5,0.17,0.83,0.6,1.05,1.06c0.4,0.79,0.65,1.68,0.61,2.57
			c-0.01,0.29-0.03,0.57-0.04,0.86c-0.58,0.02-1.18-0.18-1.6-0.6c-0.32-0.39-0.46-0.88-0.71-1.31c-0.48-0.92-1.16-1.72-1.84-2.51
			C55.803,9.529,56.763,9.579,57.563,9.879z M53.913,9.989c0.46,0.04,0.82,0.36,1.16,0.66c0.87,0.81,1.61,1.81,2.01,2.96
			c-0.54,0.17-1.11,0.31-1.67,0.14c-0.6-0.11-0.96-0.63-1.42-0.98c-0.87-0.66-1.65-1.41-2.41-2.19
			C52.243,10.089,53.092,9.919,53.913,9.989z M49.902,10.909c0.54-0.14,1.16-0.15,1.63,0.18c1.08,0.7,2.05,1.58,2.85,2.59
			c-0.71,0.61-1.88,0.81-2.65,0.19c-1.05-0.76-2.13-1.47-3.19-2.21C48.893,11.259,49.402,11.049,49.902,10.909z M47.663,11.899
			c0.33-0.06,0.65,0.09,0.94,0.23c1.15,0.61,2.21,1.37,3.2,2.21c-0.5,0.51-1.19,0.81-1.9,0.85c-0.45,0.03-0.84-0.24-1.21-0.45
			c-1.02-0.62-2.05-1.22-3.05-1.86C46.163,12.309,46.913,12.019,47.663,11.899z M44.813,13.139c0.39-0.08,0.77,0.06,1.12,0.23
			c1.11,0.57,2.15,1.24,3.17,1.96c-0.59,0.7-1.56,1.14-2.48,0.95c-0.21-0.05-0.36-0.22-0.51-0.36l-0.05-0.01l-0.04-0.03
			c-1.08-0.5-2.06-1.18-3.13-1.69C43.353,13.599,44.092,13.269,44.813,13.139z M43.183,14.679c1.12,0.57,2.24,1.13,3.28,1.82
			c-0.51,0.6-1.25,0.99-2.02,1.1c-0.41,0.06-0.8-0.14-1.15-0.32c-1.08-0.57-2.15-1.15-3.15-1.85
			C40.893,14.639,42.163,14.119,43.183,14.679z M39.893,15.629c0.59,0.18,1,0.66,1.32,1.15c0.26,0.39,0.4,0.87,0.29,1.33
			c-0.32,1.31-0.8,2.581-1.25,3.85c-0.65-0.32-1.1-0.93-1.35-1.59c-0.2-0.5-0.04-1.03,0.1-1.52
			C39.303,17.779,39.612,16.709,39.893,15.629z M37.663,13.339c0.74,0.13,1.32,0.7,1.7,1.33c0.35,0.6,0.12,1.32-0.02,1.96
			c-0.23,0.99-0.55,1.97-0.87,2.93c-0.62-0.25-1.05-0.83-1.32-1.42c-0.27-0.57-0.03-1.2,0.04-1.8
			C37.402,15.349,37.623,14.359,37.663,13.339z M36.953,12.469c0.43,0.58,0.28,1.35,0.31,2.02c0.02,1-0.36,1.94-0.65,2.88
			c-0.61-0.27-1.09-0.75-1.44-1.32c-0.31-0.65-0.13-1.39-0.18-2.09c0.02-0.94-0.16-1.86-0.28-2.8
			C35.592,11.289,36.413,11.769,36.953,12.469z M33.292,10.259c0.43,0.21,0.87,0.5,1.02,0.98c0.45,1.33,0.41,2.77,0.25,4.14
			c-0.53-0.06-1-0.37-1.4-0.71c-0.22-0.19-0.39-0.45-0.47-0.74c-0.2-0.77-0.37-1.55-0.67-2.29c-0.21-0.57-0.52-1.09-0.73-1.66
			C31.973,9.879,32.672,9.949,33.292,10.259z M29.732,9.619c0.52,0.06,1.03,0.32,1.32,0.77c0.75,1.09,1.18,2.39,1.31,3.7
			c-0.68,0.03-1.44-0.14-1.97-0.6c-0.48-0.58-0.83-1.25-1.31-1.82c-0.48-0.58-1.03-1.07-1.6-1.55
			C28.112,9.629,28.953,9.539,29.732,9.619z M26.603,10.189c0.67,0,1.16,0.52,1.62,0.95c0.72,0.69,1.32,1.49,1.76,2.39
			c-0.66,0.27-1.47,0.4-2.12,0.03c-0.4-0.24-0.75-0.55-1.13-0.82c-0.78-0.57-1.64-1-2.53-1.39
			C24.752,10.619,25.683,10.189,26.603,10.189z M23.422,11.719c0.44-0.16,0.9,0.03,1.32,0.18c0.82,0.27,1.55,0.75,2.22,1.27
			c0.23,0.18,0.45,0.37,0.63,0.6c-0.21,0.37-0.65,0.51-1.02,0.67c-0.37,0.14-0.78,0.17-1.16,0.03c-1.29-0.41-2.6-0.79-3.96-0.87
			C21.743,12.689,22.533,12.009,23.422,11.719z M19.263,17.139c0.71-0.5,1.63-0.53,2.39-0.91c-0.71-0.06-1.42,0.11-2.12,0.21
			c-0.02-1.05,0.7-2.11,1.71-2.45c1.45-0.15,2.91,0.26,4.23,0.86c-0.29,0.57-0.8,1-1.37,1.26c-0.8,0.26-1.68-0.13-2.47,0.18
			c0.67,0.14,1.37,0.08,2.03,0.29c-0.13,0.67-0.5,1.33-1.08,1.71c-0.61,0.23-1.22,0.49-1.88,0.54c-0.34,0.03-0.61,0.23-0.92,0.35
			c-0.16-0.06-0.28-0.16-0.43-0.25c-0.21-0.01-0.43-0.07-0.65-0.11h-0.23C18.533,18.189,18.792,17.559,19.263,17.139z
			 M18.223,19.049c0.49,0,1.04,0.03,1.42,0.39c0.54,0.52,0.98,1.12,1.42,1.71c0.41,0.569,0.84,1.13,1.19,1.739
			c-0.63,0.351-1.4,0.36-2.09,0.21c-0.63-0.159-0.98-0.739-1.4-1.18c-0.75-0.78-1.31-1.71-1.77-2.68
			C17.382,19.109,17.792,19.029,18.223,19.049z M4.603,22.959c-0.42-0.17-0.64-0.59-0.92-0.92c-0.7-0.9-1.32-1.87-1.96-2.82
			c0.66-0.26,1.4-0.29,2.08-0.12c0.59,0.16,0.94,0.68,1.29,1.12c0.64,0.88,1.3,1.74,1.83,2.69
			C6.192,23.199,5.342,23.249,4.603,22.959z M8.342,23.149c-0.43-0.07-0.89-0.21-1.18-0.57c-0.6-0.73-1.13-1.521-1.68-2.29
			c-0.24-0.35-0.48-0.69-0.66-1.07c0.74-0.3,1.6-0.3,2.34,0c0.41,0.16,0.65,0.53,0.92,0.85c0.71,0.92,1.39,1.859,2.05,2.83
			C9.563,23.099,8.953,23.269,8.342,23.149z M10.783,22.979c-0.54-0.24-0.8-0.811-1.14-1.25c-0.61-0.79-1.15-1.65-1.78-2.44
			c0.66-0.37,1.48-0.34,2.18-0.12c0.35,0.1,0.64,0.33,0.86,0.62c0.45,0.57,0.87,1.16,1.28,1.76c0.3,0.45,0.63,0.88,0.84,1.391
			C12.313,23.209,11.493,23.309,10.783,22.979z M14.772,23.219c-0.35-0.02-0.68-0.109-1-0.229c-0.43-0.181-0.69-0.59-0.97-0.95
			c-0.65-0.91-1.33-1.81-1.91-2.77c0.74-0.36,1.61-0.32,2.36-0.01c0.28,0.13,0.47,0.38,0.67,0.61c0.38,0.479,0.76,0.97,1.11,1.47
			c0.35,0.521,0.77,1.01,1.03,1.57C15.652,23.079,15.223,23.219,14.772,23.219z M19.272,23.959c-0.12-0.13-0.25-0.27-0.34-0.44
			c-0.05-0.159-0.01-0.34-0.01-0.51c-0.65,0.21-1.4,0.28-2.05,0.01c-0.46-0.199-0.75-0.609-1.04-1c-0.36-0.529-0.76-1.029-1.11-1.56
			c-0.27-0.41-0.6-0.78-0.78-1.24c0.73-0.26,1.53-0.25,2.25,0.02c0.19,0.07,0.34,0.2,0.47,0.34c0.78,0.86,1.35,1.86,2.04,2.77
			c0.2,0.23,0.31,0.521,0.38,0.82c0.22-0.12,0.47-0.17,0.69-0.01C19.632,23.439,19.462,23.719,19.272,23.959z M19.533,24.639
			c-0.01-0.5,0.29-0.939,0.57-1.34c0.15,0.04,0.31,0.07,0.46,0.11c0.31,0.01,0.62,0.03,0.94,0.02c0.37-0.109,0.75-0.229,1.09-0.43
			c0.02,0.04,0.08,0.11,0.11,0.14c-0.13,0.28-0.26,0.54-0.41,0.801c-0.54,1.029-0.93,2.149-1.16,3.3
			C20.223,26.709,19.542,25.709,19.533,24.639z M24.683,30.509c-0.28-0.22-0.54-0.479-0.65-0.83c-0.18-0.6-0.19-1.239-0.19-1.859
			c-0.05-0.011-0.14-0.011-0.18-0.011c-0.03,0.591-0.03,1.181-0.03,1.78c-0.89-0.21-1.68-0.82-2.07-1.66
			c-0.2-0.399-0.14-0.85-0.03-1.26c0.25-1.17,0.77-2.28,1.43-3.28c0.53,0.44,0.98,1.061,1.05,1.761c0.03,0.79-0.31,1.54-0.31,2.34
			c0.01,0.109,0.07,0.21,0.11,0.319c0.21-0.79,0.19-1.64,0.54-2.39c0.58,0.22,1.12,0.62,1.42,1.17c0.25,0.49,0.22,1.061,0.3,1.58
			c0.1,1.021,0.41,2,0.68,2.98C26.013,31.219,25.272,30.949,24.683,30.509z M28.033,31.759c-0.39-0.17-0.74-0.43-0.94-0.81
			c-0.58-1.24-0.81-2.62-0.83-3.97c0.6-0.011,1.16,0.26,1.63,0.619c0.27,0.21,0.39,0.551,0.53,0.86c0.45,1.15,0.98,2.29,1.7,3.31
			C29.462,32.049,28.692,32.019,28.033,31.759z M31.243,31.929c-0.66-0.149-1.02-0.779-1.44-1.239c-0.7-0.78-0.99-1.811-1.19-2.811
			c0.74-0.07,1.61-0.07,2.18,0.49c0.47,0.49,0.87,1.04,1.35,1.52c0.51,0.57,1.13,1.03,1.65,1.591
			C33.053,31.979,32.103,32.129,31.243,31.929z M35.042,31.389c-0.75,0.08-1.34-0.439-1.85-0.909c-0.75-0.681-1.42-1.45-1.99-2.301
			c0.51-0.37,1.17-0.41,1.77-0.37c0.44,0.021,0.78,0.311,1.1,0.57c0.95,0.74,1.93,1.42,2.91,2.11
			C36.493,31.039,35.752,31.309,35.042,31.389z M37.803,30.289c-0.51,0.02-0.94-0.26-1.34-0.521c-0.93-0.619-1.86-1.239-2.61-2.05
			c0.53-0.45,1.22-0.68,1.9-0.72c0.48-0.02,0.89,0.27,1.3,0.48c1.01,0.569,1.99,1.17,3.03,1.689
			C39.513,29.829,38.663,30.259,37.803,30.289z M40.882,28.989c-0.59,0.09-1.1-0.28-1.6-0.53c-0.94-0.53-1.89-1.07-2.78-1.68
			c0.43-0.41,0.96-0.69,1.53-0.86c0.35-0.1,0.74-0.13,1.08,0.021c0.86,0.35,1.67,0.829,2.47,1.279c0.39,0.221,0.78,0.42,1.14,0.681
			C42.272,28.469,41.592,28.859,40.882,28.989z M43.572,27.639c-0.49,0.091-0.95-0.159-1.39-0.37c-1.02-0.52-2.04-1.06-3.02-1.659
			c0.42-0.54,1.06-0.851,1.7-1.021c0.68-0.189,1.32,0.24,1.91,0.5c0.89,0.46,1.8,0.9,2.62,1.48
			C44.962,27.159,44.283,27.499,43.572,27.639z M46.623,27.409c-0.11,0.609-0.11,1.24-0.17,1.859c-0.69-0.21-1.25-0.72-1.68-1.279
			c-0.08-0.12-0.22-0.271-0.13-0.42c0.26-0.24,0.56-0.44,0.83-0.65c0.06-0.12,0.11-0.24,0.16-0.35c0.29-0.011,0.58,0,0.86,0.05
			c0.06-0.03,0.17-0.09,0.23-0.12C46.712,26.799,46.672,27.099,46.623,27.409z M46.132,26.349c-0.36-0.01-0.69-0.17-1-0.319
			c-1.1-0.57-2.18-1.16-3.26-1.761c0.31-0.47,0.85-0.72,1.36-0.92c0.38-0.119,0.8-0.199,1.19-0.06c1.05,0.38,1.96,1.04,2.92,1.6
			c0.24,0.141,0.45,0.32,0.66,0.48C47.553,25.949,46.853,26.289,46.132,26.349z M47.362,30.079c-0.3-0.32-0.43-0.771-0.44-1.2
			c-0.03-0.76-0.04-1.53,0.11-2.28c0.07-0.369,0.5-0.449,0.78-0.6c0.02-0.05,0.04-0.13,0.06-0.17c0.12-0.061,0.24-0.13,0.36-0.17
			c0.4,0.31,0.77,0.74,0.85,1.25c0.11,1.45,0.3,2.88,0.56,4.31C48.772,31.139,47.962,30.709,47.362,30.079z M50.683,31.629
			c-0.54-0.28-0.77-0.899-0.94-1.45c-0.29-1.029-0.34-2.12-0.25-3.189c0.51,0.1,1.06,0.2,1.44,0.569c0.36,0.32,0.46,0.801,0.62,1.23
			c0.38,1.13,1,2.16,1.73,3.09C52.442,32.199,51.462,32.059,50.683,31.629z M54.453,31.979c-0.31-0.04-0.6-0.141-0.83-0.351
			c-1.05-0.95-1.72-2.25-2-3.62c0.78-0.17,1.73-0.13,2.27,0.54c0.85,1.061,1.77,2.07,2.84,2.931
			C56.063,31.939,55.232,32.089,54.453,31.979z M58.873,31.089c-0.65,0.24-1.46,0.41-2.1,0.021c-0.58-0.351-1.06-0.841-1.54-1.32
			c-0.46-0.48-0.87-1-1.23-1.56c0.48-0.28,1.01-0.48,1.57-0.471c0.43,0.021,0.82,0.25,1.14,0.521c0.96,0.819,2.01,1.55,3.16,2.08
			C59.692,30.749,59.243,30.909,58.873,31.089z M61.013,29.989c-0.62,0.25-1.27-0.04-1.83-0.32c-0.98-0.479-1.85-1.16-2.67-1.89
			c0.54-0.45,1.2-0.8,1.91-0.8c0.48-0.021,0.89,0.26,1.3,0.439c1.02,0.47,2.08,0.84,3.19,1.03
			C62.583,29.239,61.783,29.709,61.013,29.989z M63.803,27.779c-0.59,0.399-1.33,0.229-1.98,0.13c-0.96-0.23-1.87-0.62-2.71-1.141
			c0.26-0.56,0.78-0.949,1.35-1.159c0.69-0.16,1.4,0.14,2.1,0.149c0.91,0.08,1.8-0.09,2.69-0.24
			C65.152,26.449,64.553,27.259,63.803,27.779z M65.853,24.309c-0.16,0.29-0.42,0.53-0.71,0.671c-1.27,0.579-2.73,0.619-4.07,0.27
			c0.16-0.75,0.61-1.57,1.41-1.76c0.42-0.11,0.83-0.26,1.22-0.46c0.84-0.45,1.71-0.851,2.51-1.38
			C66.462,22.539,66.303,23.509,65.853,24.309z"/>
	</g>
	<path fill="#F6AA1B" d="M0.583,21.476c-0.189-0.287-0.229-0.632-0.262-0.963c0.344-0.009,0.74-0.062,1.029,0.182
		c0.467,0.391,0.865,0.867,1.217,1.363c0.188,0.234,0.197,0.547,0.201,0.834c-0.269,0.039-0.565,0.146-0.818-0.013
		C1.37,22.56,0.929,22.031,0.583,21.476z"/>
	<path fill="#F6AA1B" d="M3.579,21.396c-0.15-0.25-0.192-0.541-0.236-0.828c0.258-0.045,0.533-0.135,0.776,0
		c0.438,0.218,0.759,0.598,1.074,0.953c0.289,0.371,0.703,0.789,0.585,1.307c-0.173,0.229-0.637,0.181-0.878,0.023
		C4.333,22.5,3.909,21.963,3.579,21.396z"/>
	<path fill="#F6AA1B" d="M6.644,21.435c-0.172-0.268-0.21-0.584-0.233-0.895c0.309-0.036,0.649-0.081,0.918,0.107
		c0.34,0.234,0.598,0.567,0.878,0.869c0.288,0.319,0.62,0.668,0.649,1.123c0.015,0.268-0.297,0.424-0.527,0.346
		C7.556,22.772,7.033,22.094,6.644,21.435z"/>
	<path fill="#F6AA1B" d="M9.637,21.368c-0.147-0.256-0.147-0.551-0.161-0.833c0.273-0.009,0.573-0.081,0.82,0.071
		c0.334,0.201,0.594,0.5,0.863,0.789c0.297,0.332,0.619,0.685,0.734,1.129c0.041,0.146,0.021,0.345-0.132,0.42
		c-0.362,0.117-0.755-0.028-1.042-0.27C10.273,22.323,9.905,21.869,9.637,21.368z"/>
	<path fill="#F6AA1B" d="M13.198,22.104c-0.331-0.459-0.732-0.938-0.707-1.543c0.249-0.033,0.521-0.129,0.756,0.004
		c0.455,0.256,0.824,0.647,1.157,1.047c0.238,0.311,0.504,0.646,0.54,1.049c0.037,0.27-0.327,0.372-0.535,0.34
		C13.915,22.87,13.512,22.5,13.198,22.104z"/>
	<path fill="#F6AA1B" d="M15.705,21.319c-0.128-0.233-0.136-0.502-0.143-0.762c0.383-0.031,0.837-0.103,1.13,0.205
		c0.438,0.428,0.968,0.834,1.168,1.438c0.088,0.227,0.115,0.47,0.146,0.71c-0.297,0.054-0.625,0.136-0.9-0.039
		C16.497,22.515,16.02,21.95,15.705,21.319z"/>
	<path fill="#F6AA1B" d="M19.28,21.948c-0.332-0.406-0.658-0.902-0.514-1.454c0.287,0.019,0.608-0.007,0.859,0.178
		c0.463,0.328,0.834,0.767,1.186,1.211c0.175,0.255,0.383,0.536,0.367,0.863c-0.111,0.257-0.447,0.282-0.686,0.21
		C19.97,22.796,19.605,22.362,19.28,21.948z"/>
	<path fill="#F6AA1B" d="M18.705,18.821c0.021-0.286,0.024-0.595,0.208-0.833c0.424-0.594,1.143-0.873,1.833-1.012
		c0.348-0.077,0.687,0.066,1.001,0.188c-0.092,0.287-0.188,0.6-0.47,0.761c-0.604,0.39-1.259,0.708-1.919,1.001
		C19.14,18.915,18.923,18.856,18.705,18.821z"/>
	<path fill="#F6AA1B" d="M20.257,26.051c-0.264-0.28-0.573-0.604-0.502-1.03c0.057-0.595,0.178-1.357,0.806-1.612
		c0.313,0.016,0.626,0.028,0.938,0.024c-0.19,0.631-0.355,1.268-0.613,1.87C20.759,25.612,20.51,25.845,20.257,26.051z"/>
	<path fill="#F6AA1B" d="M20.037,15.317c0.151-0.277,0.28-0.61,0.575-0.767c0.566-0.327,1.246-0.312,1.874-0.256
		c0.312,0.045,0.651,0.089,0.884,0.319c0.157,0.214-0.004,0.487-0.209,0.595c-0.546,0.367-1.223,0.294-1.844,0.362
		C20.875,15.61,20.37,15.678,20.037,15.317z"/>
	<path fill="#F6AA1B" d="M21.759,27.819c-0.132-0.676-0.034-1.416,0.277-2.027c0.141-0.198,0.338-0.564,0.633-0.413
		c0.193,0.142,0.275,0.386,0.301,0.618c0.066,0.77,0.024,1.552-0.133,2.313c-0.035,0.176-0.156,0.396-0.369,0.356
		C22.023,28.666,21.863,28.168,21.759,27.819z"/>
	<path fill="#F6AA1B" d="M22.479,22.134c-0.302-0.363-0.599-0.755-0.714-1.223c-0.059-0.166,0.033-0.376,0.22-0.398
		c0.464-0.08,0.864,0.247,1.167,0.563c0.475,0.501,1.012,1.024,1.116,1.748c-0.196,0.067-0.392,0.211-0.608,0.166
		C23.161,22.886,22.792,22.507,22.479,22.134z"/>
	<path fill="#F6AA1B" d="M22.543,12.834c-0.17-0.152-0.047-0.398,0.08-0.53c0.234-0.275,0.619-0.32,0.953-0.333
		c0.586-0.033,1.141,0.205,1.66,0.442c0.289,0.124,0.429,0.412,0.602,0.651c-0.177,0.15-0.342,0.352-0.589,0.361
		c-0.552,0.063-1.087-0.123-1.622-0.206C23.256,13.139,22.833,13.106,22.543,12.834z"/>
	<path fill="#F6AA1B" d="M24.11,28.296c-0.053-0.355,0.195-0.682,0.478-0.865c0.333,0,0.501,0.332,0.606,0.598
		c0.193,0.558,0.279,1.142,0.53,1.68c-0.039,0.299,0.007,0.643-0.16,0.902c-0.343,0.125-0.685-0.11-0.896-0.363
		C24.231,29.698,24.176,28.966,24.11,28.296z"/>
	<path fill="#F6AA1B" d="M25.003,21.411c-0.183-0.253-0.206-0.564-0.214-0.867c0.274-0.025,0.572-0.089,0.826,0.064
		c0.479,0.271,0.848,0.688,1.192,1.105c0.265,0.313,0.413,0.703,0.508,1.096c-0.3,0.166-0.663,0.215-0.974,0.037
		C25.771,22.51,25.369,21.955,25.003,21.411z"/>
	<path fill="#F6AA1B" d="M25.541,10.977c-0.165-0.259,0.14-0.502,0.37-0.564c0.584-0.144,1.195,0.107,1.672,0.438
		c0.396,0.307,0.793,0.685,0.939,1.182c0.072,0.162-0.106,0.304-0.253,0.331c-0.428,0.09-0.821-0.162-1.187-0.345
		C26.532,11.733,25.915,11.496,25.541,10.977z"/>
	<path fill="#F6AA1B" d="M27.648,31.218c-0.539-0.669-0.912-1.576-0.659-2.436c0.224,0.045,0.479,0.031,0.657,0.193
		c0.285,0.25,0.463,0.6,0.656,0.916c0.305,0.551,0.716,1.092,0.669,1.762C28.482,31.834,27.966,31.606,27.648,31.218z"/>
	<path fill="#F6AA1B" d="M28.375,21.798c-0.32-0.322-0.502-0.752-0.564-1.199c0.224-0.09,0.479-0.22,0.721-0.093
		c0.508,0.229,0.927,0.609,1.35,0.966c0.334,0.272,0.563,0.641,0.734,1.033c-0.22,0.139-0.456,0.309-0.734,0.266
		C29.257,22.708,28.793,22.224,28.375,21.798z"/>
	<path fill="#F6AA1B" d="M29.033,10.303c-0.097-0.186-0.013-0.423,0.188-0.486c0.451-0.116,0.936,0.083,1.27,0.395
		c0.393,0.362,0.703,0.819,0.891,1.321c0.087,0.282,0.188,0.663-0.08,0.881c-0.713,0-1.146-0.662-1.573-1.142
		C29.48,10.962,29.182,10.677,29.033,10.303z"/>
	<path fill="#F6AA1B" d="M30.157,30.424c-0.193-0.292-0.217-0.647-0.201-0.989c0.267-0.002,0.556-0.05,0.791,0.107
		c0.447,0.273,0.789,0.682,1.19,1.016c0.261,0.262,0.602,0.547,0.613,0.95c0.01,0.339-0.422,0.386-0.675,0.339
		C31.117,31.674,30.542,31.067,30.157,30.424z"/>
	<path fill="#F6AA1B" d="M30.92,20.688c-0.133-0.172-0.086-0.396-0.076-0.6c0.434-0.047,0.891-0.017,1.269,0.223
		c0.526,0.313,1.062,0.645,1.48,1.097c0.284,0.269-0.057,0.748-0.401,0.702c-0.496,0.01-0.967-0.198-1.35-0.504
		C31.504,21.339,31.159,21.056,30.92,20.688z"/>
	<path fill="#F6AA1B" d="M32.543,10.905c-0.031-0.201-0.053-0.497,0.188-0.577c0.398-0.09,0.766,0.192,0.991,0.501
		c0.443,0.63,0.663,1.435,0.54,2.203c-0.025,0.174-0.123,0.411-0.338,0.385c-0.363-0.021-0.547-0.398-0.705-0.679
		C32.953,12.15,32.676,11.546,32.543,10.905z"/>
	<path fill="#F6AA1B" d="M33.73,30.595c-0.427-0.354-0.905-0.779-0.857-1.393c0.258-0.045,0.531-0.13,0.786-0.026
		c0.431,0.152,0.806,0.407,1.192,0.64c0.275,0.179,0.572,0.344,0.785,0.599c0.164,0.187,0.115,0.438,0.127,0.663
		C35.053,31.303,34.292,31.042,33.73,30.595z"/>
	<path fill="#F6AA1B" d="M34.491,20.487c-0.305-0.247-0.681-0.49-0.781-0.888c0-0.362,0.449-0.417,0.718-0.353
		c0.7,0.151,1.317,0.554,1.915,0.94c0.272,0.152,0.396,0.455,0.416,0.761C35.993,21.347,35.12,20.962,34.491,20.487z"/>
	<path fill="#F6AA1B" d="M35.789,28.765c-0.136-0.229,0.085-0.509,0.331-0.505c0.6-0.042,1.135,0.289,1.67,0.513
		c0.359,0.197,0.815,0.358,0.996,0.765c0.121,0.341-0.26,0.506-0.532,0.546c-0.508,0.053-0.993-0.18-1.437-0.405
		C36.417,29.449,36.001,29.181,35.789,28.765z"/>
	<path fill="#F6AA1B" d="M35.698,14.128c-0.102-0.732-0.204-1.486-0.037-2.215c0.236,0.018,0.529-0.072,0.701,0.145
		c0.437,0.442,0.528,1.105,0.508,1.704c-0.021,0.409-0.063,0.835-0.244,1.213c-0.096,0.207-0.404,0.246-0.564,0.084
		C35.823,14.809,35.752,14.456,35.698,14.128z"/>
	<path fill="#F6AA1B" d="M36.691,18.613c-0.061-0.162,0.103-0.28,0.167-0.414c0.249,0.439,0.573,0.823,0.859,1.235
		C37.311,19.271,36.863,19.048,36.691,18.613z"/>
	<path fill="#F6AA1B" d="M37.966,16.663c-0.041-0.537,0.018-1.079,0.071-1.609c0.061-0.311,0.142-0.681,0.425-0.856
		c0.308-0.177,0.549,0.199,0.653,0.438c0.214,0.643,0.132,1.348-0.056,1.981c-0.103,0.278-0.188,0.593-0.427,0.783
		C38.198,17.559,37.989,16.999,37.966,16.663z"/>
	<path fill="#F6AA1B" d="M38.559,27.614c-0.209-0.438,0.451-0.605,0.775-0.524c0.768,0.175,1.58,0.416,2.16,0.978
		c0.229,0.164,0.123,0.5-0.121,0.586c-0.605,0.234-1.28,0.021-1.83-0.266C39.181,28.183,38.792,27.972,38.559,27.614z"/>
	<path fill="#F6AA1B" d="M39.929,19.414c-0.117-0.555-0.016-1.124,0.094-1.672c0.082-0.363,0.168-0.754,0.412-1.052
		c0.158-0.192,0.492-0.107,0.609,0.094c0.248,0.377,0.205,0.858,0.158,1.286c-0.083,0.569-0.234,1.154-0.6,1.611
		c-0.105,0.162-0.32,0.143-0.484,0.109C40.023,19.683,39.963,19.55,39.929,19.414z"/>
	<path fill="#F6AA1B" d="M41.292,26.216c-0.081-0.156,0.035-0.335,0.187-0.39c0.421-0.191,0.877-0.04,1.291,0.094
		c0.584,0.198,1.219,0.442,1.588,0.968c0.026,0.281-0.248,0.51-0.511,0.537c-0.466,0.021-0.924-0.113-1.349-0.296
		C42.052,26.901,41.54,26.678,41.292,26.216z"/>
	<path fill="#F6AA1B" d="M41.719,21.878c-0.179-0.738,0.077-1.492,0.293-2.189c0.113-0.259,0.265-0.676,0.61-0.623
		c0.408,0.254,0.541,0.773,0.454,1.22c-0.123,0.691-0.28,1.449-0.796,1.963C42.016,22.367,41.779,22.115,41.719,21.878z"/>
	<path fill="#F6AA1B" d="M42.168,16.167c0.076-0.18,0.111-0.441,0.363-0.452c0.742-0.123,1.468,0.213,2.105,0.558
		c0.236,0.153,0.533,0.293,0.621,0.582c0.092,0.285-0.234,0.529-0.493,0.511C43.766,17.378,42.854,16.848,42.168,16.167z"/>
	<path fill="#F6AA1B" d="M43.595,22.892c0.119-0.472,0.197-1.023,0.604-1.347c0.399-0.079,0.563,0.405,0.774,0.646
		c-0.221,0.233-0.438,0.479-0.589,0.77c-0.127-0.009-0.253-0.021-0.38-0.031C43.868,22.917,43.726,22.897,43.595,22.892z"/>
	<path fill="#F6AA1B" d="M45.018,25.683c-0.445-0.252-1.014-0.535-1.054-1.115c0.297-0.104,0.608-0.225,0.924-0.146
		c0.732,0.146,1.407,0.488,2.011,0.917c0.291,0.17,0.137,0.663-0.158,0.739C46.138,26.288,45.548,25.935,45.018,25.683z"/>
	<path fill="#F6AA1B" d="M46.025,15.875c-0.399-0.434-0.922-0.748-1.228-1.271c0.352-0.125,0.728-0.269,1.108-0.189
		c0.553,0.103,1.081,0.35,1.56,0.649c0.233,0.166,0.509,0.375,0.522,0.683c-0.002,0.241-0.258,0.375-0.47,0.361
		c-0.472-0.018-0.928-0.17-1.403-0.19l-0.057-0.006L46.025,15.875z"/>
	<path fill="#F6AA1B" d="M46.043,27.003c-0.195,0-0.381-0.053-0.568-0.089c0.056-0.115,0.107-0.231,0.158-0.349
		c0.289-0.008,0.576,0.004,0.859,0.051C46.344,26.746,46.221,26.917,46.043,27.003z"/>
	<path fill="#F6AA1B" d="M46.898,23.565c-0.08-0.125,0.002-0.276,0.113-0.344c0.227-0.158,0.52-0.158,0.771-0.097
		c0.665,0.174,1.303,0.479,1.794,0.965c0.132,0.136,0.266,0.3,0.25,0.492c-0.002,0.229-0.27,0.317-0.462,0.338
		c-0.644,0.004-1.253-0.292-1.763-0.667C47.34,24.06,47.053,23.862,46.898,23.565z"/>
	<path fill="#F6AA1B" d="M47.727,28.418c-0.227-0.792-0.184-1.651,0.091-2.425c0.013-0.045,0.036-0.128,0.057-0.171
		c0.224,0.103,0.52,0.141,0.658,0.374c0.204,0.387,0.224,0.839,0.243,1.264c0,0.415,0.017,0.835-0.092,1.234
		c-0.053,0.145-0.1,0.367-0.302,0.342C48.034,29.06,47.817,28.712,47.727,28.418z"/>
	<path fill="#F6AA1B" d="M47.793,13.603c-0.104-0.217,0.131-0.423,0.338-0.427c0.726-0.099,1.387,0.316,1.984,0.675
		c0.289,0.211,0.729,0.5,0.592,0.916c-0.196,0.222-0.527,0.226-0.793,0.182c-0.564-0.116-1.068-0.406-1.541-0.721
		C48.143,14.062,47.893,13.877,47.793,13.603z"/>
	<path fill="#F6AA1B" d="M49.763,22.599c-0.169-0.418,0.454-0.711,0.799-0.558c0.716,0.308,1.446,0.692,1.906,1.339
		c0.202,0.239,0.077,0.688-0.257,0.7c-0.529-0.015-0.998-0.295-1.421-0.572C50.419,23.237,50.05,22.957,49.763,22.599z"/>
	<path fill="#F6AA1B" d="M50.716,30.11c-0.524-0.648-0.793-1.53-0.656-2.365c0.029-0.283,0.421-0.403,0.606-0.193
		c0.408,0.432,0.547,1.03,0.739,1.574c0.149,0.402,0.226,0.824,0.212,1.245C51.292,30.401,50.929,30.397,50.716,30.11z"/>
	<path fill="#F6AA1B" d="M51.118,13.104c-0.203-0.191-0.477-0.39-0.485-0.694c-0.035-0.207,0.204-0.305,0.366-0.345
		c0.439-0.064,0.843,0.184,1.216,0.385c0.574,0.327,1.219,0.761,1.297,1.484c-0.293,0.086-0.609,0.178-0.91,0.072
		C52.048,13.818,51.565,13.466,51.118,13.104z"/>
	<path fill="#F6AA1B" d="M53,29.737c-0.312-0.383-0.622-0.85-0.542-1.371c0.019-0.273,0.394-0.256,0.582-0.164
		c0.471,0.249,0.788,0.693,1.137,1.083c0.276,0.302,0.445,0.678,0.595,1.059c-0.159,0.116-0.314,0.321-0.533,0.267
		C53.706,30.549,53.326,30.125,53,29.737z"/>
	<path fill="#F6AA1B" d="M52.792,21.835c-0.076-0.136-0.052-0.302-0.01-0.45c0.345-0.132,0.755-0.099,1.066,0.112
		c0.461,0.298,0.875,0.663,1.227,1.082c0.152,0.213,0.338,0.449,0.313,0.729c-0.036,0.213-0.281,0.274-0.465,0.258
		c-0.497-0.02-0.884-0.371-1.238-0.685C53.355,22.565,53.008,22.245,52.792,21.835z"/>
	<path fill="#F6AA1B" d="M53.774,11.783c-0.037-0.121-0.029-0.247,0.002-0.372c0.502-0.251,1.08,0.022,1.455,0.376
		c0.416,0.392,0.836,0.847,0.98,1.417c0.11,0.284-0.238,0.478-0.487,0.407c-0.537-0.114-0.914-0.553-1.278-0.929
		C54.194,12.407,53.904,12.145,53.774,11.783z"/>
	<path fill="#F6AA1B" d="M55.055,28.383c-0.111-0.228,0.127-0.432,0.342-0.43c0.48-0.009,0.904,0.272,1.282,0.542
		c0.403,0.302,0.799,0.626,1.054,1.066c0.115,0.148-0.006,0.39-0.189,0.412c-0.521,0.183-1.033-0.127-1.451-0.408
		C55.661,29.261,55.207,28.907,55.055,28.383z"/>
	<path fill="#F6AA1B" d="M57.063,22.974c-0.529-0.457-1.102-0.979-1.26-1.687c-0.079-0.2,0.165-0.345,0.337-0.34
		c0.562,0.026,1.022,0.411,1.399,0.797c0.38,0.412,0.849,0.848,0.859,1.46C57.946,23.388,57.43,23.302,57.063,22.974z"/>
	<path fill="#F6AA1B" d="M57.287,12.768c-0.192-0.403-0.402-0.814-0.463-1.263c-0.028-0.223,0.221-0.345,0.412-0.331
		c0.365,0.026,0.639,0.322,0.837,0.604c0.35,0.48,0.454,1.082,0.705,1.61c-0.159,0.254-0.295,0.652-0.655,0.652
		C57.769,13.676,57.529,13.21,57.287,12.768z"/>
	<path fill="#F6AA1B" d="M57.641,27.542c-0.011-0.104,0.014-0.215,0.051-0.313c0.717-0.224,1.422,0.16,2.047,0.47
		c0.337,0.188,0.753,0.356,0.885,0.749c-0.036,0.357-0.473,0.41-0.76,0.432c-0.531,0.059-0.977-0.279-1.43-0.505
		C58.102,28.187,57.718,27.949,57.641,27.542z"/>
	<path fill="#F6AA1B" d="M58.864,21.146c-0.069-0.231,0.167-0.437,0.392-0.396c0.477,0.06,0.861,0.394,1.203,0.709
		c0.373,0.378,0.753,0.786,0.921,1.298c0.092,0.207-0.116,0.432-0.329,0.421c-0.555,0.042-1.005-0.368-1.365-0.741
		C59.345,22.058,58.998,21.649,58.864,21.146z"/>
	<path fill="#F6AA1B" d="M59.816,14.935c-0.257-0.833,0.056-1.697-0.112-2.531c0.083-0.097,0.164-0.191,0.248-0.28
		c0.28,0.111,0.613,0.221,0.722,0.543c0.243,0.625,0.237,1.339,0.058,1.977c-0.089,0.273-0.236,0.653-0.586,0.627
		C59.947,15.297,59.873,15.086,59.816,14.935z"/>
	<path fill="#F6AA1B" d="M60.021,26.467c-0.063-0.13-0.098-0.321,0.028-0.43c0.249-0.245,0.629-0.204,0.949-0.199
		c0.56,0.047,1.131,0.101,1.673,0.267c0.192,0.059,0.436,0.22,0.365,0.447c-0.11,0.311-0.435,0.471-0.739,0.504
		c-0.67,0.088-1.38-0.007-1.973-0.332C60.21,26.66,60.092,26.587,60.021,26.467z"/>
	<path fill="#F6AA1B" d="M61.302,17.235c-0.186-0.481,0.042-0.999,0.192-1.459c0.184-0.466,0.326-0.994,0.73-1.32
		c0.285-0.164,0.51,0.179,0.559,0.422c0.123,0.594-0.109,1.175-0.348,1.704c-0.154,0.315-0.326,0.668-0.65,0.836
		C61.604,17.523,61.394,17.388,61.302,17.235z"/>
	<path fill="#F6AA1B" d="M61.89,24.759c-0.181-0.047-0.313-0.264-0.249-0.445c0.124-0.229,0.391-0.319,0.617-0.42
		c0.575-0.211,1.175-0.359,1.783-0.438c0.22-0.041,0.436,0.04,0.63,0.134c-0.132,0.407-0.337,0.843-0.762,1.009
		C63.274,24.842,62.545,24.995,61.89,24.759z"/>
	<path fill="#F6AA1B" d="M62.102,21.547c-0.146-0.287-0.196-0.604-0.134-0.922c0.156,0.158,0.305,0.327,0.45,0.501
		C62.315,21.267,62.21,21.408,62.102,21.547z"/>
	<path fill="#F6AA1B" d="M62.256,19.816c-0.162-0.544,0.15-1.072,0.447-1.507c0.288-0.405,0.542-0.884,1.002-1.114
		c0.229-0.117,0.387,0.147,0.42,0.34c0.1,0.528-0.152,1.04-0.438,1.465c-0.251,0.355-0.523,0.719-0.913,0.929
		C62.611,20.021,62.353,19.979,62.256,19.816z"/>
	<path fill="#F6AA1B" d="M62.45,22.299c-0.083-0.19-0.057-0.43,0.096-0.587c0.364-0.434,0.81-0.792,1.263-1.132
		c0.26-0.179,0.541-0.401,0.877-0.386c0.318,0.213,0.208,0.654,0.057,0.936c-0.324,0.551-0.862,0.967-1.447,1.219
		C63.039,22.435,62.642,22.541,62.45,22.299z"/>
</g>
</svg>
