<?xml version="1.0" encoding="utf-8"?>
<!-- Generator: Adobe Illustrator 16.0.0, SVG Export Plug-In . SVG Version: 6.00 Build 0)  -->
<!DOCTYPE svg PUBLIC "-//W3C//DTD SVG 1.1//EN" "http://www.w3.org/Graphics/SVG/1.1/DTD/svg11.dtd">
<svg version="1.1" id="Layer_1" xmlns="http://www.w3.org/2000/svg" xmlns:xlink="http://www.w3.org/1999/xlink" x="0px" y="0px"
	 width="1366px" height="497.404px" viewBox="0 0 1366 497.404" enable-background="new 0 0 1366 497.404" xml:space="preserve">
<radialGradient id="SVGID_1_" cx="699.717" cy="408.8896" r="106.7012" gradientTransform="matrix(1 0 0 1 -16.7197 -295.4863)" gradientUnits="userSpaceOnUse">
	<stop  offset="0" style="stop-color:#000000"/>
	<stop  offset="0.0891" style="stop-color:#030303;stop-opacity:0.9465"/>
	<stop  offset="0.1552" style="stop-color:#0C0C0C;stop-opacity:0.9069"/>
	<stop  offset="0.214" style="stop-color:#1D1D1D;stop-opacity:0.8716"/>
	<stop  offset="0.2684" style="stop-color:#333333;stop-opacity:0.8389"/>
	<stop  offset="0.3199" style="stop-color:#515151;stop-opacity:0.808"/>
	<stop  offset="0.3693" style="stop-color:#757575;stop-opacity:0.7784"/>
	<stop  offset="0.4168" style="stop-color:#9F9F9F;stop-opacity:0.7499"/>
	<stop  offset="0.4617" style="stop-color:#D0D0D0;stop-opacity:0.723"/>
	<stop  offset="0.5" style="stop-color:#FFFFFF;stop-opacity:0.7"/>
	<stop  offset="0.5246" style="stop-color:#E3E3E3;stop-opacity:0.7123"/>
	<stop  offset="0.573" style="stop-color:#B3B1B1;stop-opacity:0.7365"/>
	<stop  offset="0.6238" style="stop-color:#888586;stop-opacity:0.7619"/>
	<stop  offset="0.6762" style="stop-color:#645F61;stop-opacity:0.7881"/>
	<stop  offset="0.7305" style="stop-color:#474143;stop-opacity:0.8152"/>
	<stop  offset="0.7874" style="stop-color:#302A2B;stop-opacity:0.8437"/>
	<stop  offset="0.8479" style="stop-color:#20191B;stop-opacity:0.874"/>
	<stop  offset="0.9147" style="stop-color:#160F11;stop-opacity:0.9074"/>
	<stop  offset="1" style="stop-color:#130C0E;stop-opacity:0.95"/>
</radialGradient>
<circle opacity="0.7" fill="url(#SVGID_1_)" enable-background="new    " cx="682.996" cy="113.403" r="106.702"/>
<g>
	<g>
		<path fill="#FFFFFF" d="M216.061,479.703l-3.094-10.08h-0.079c0.111,2.051,0.167,3.418,0.167,4.104v5.979h-2.435v-12.852h3.709
			l3.041,9.826h0.053l3.226-9.826h3.709v12.852h-2.54v-6.082c0-0.287,0.004-0.617,0.015-0.992c0.009-0.375,0.048-1.371,0.119-2.988
			h-0.079l-3.313,10.063h-2.497L216.061,479.703L216.061,479.703z"/>
		<path fill="#FFFFFF" d="M235.458,479.703l-0.934-3.061h-4.685l-0.932,3.061h-2.938l4.535-12.902h3.331l4.553,12.902H235.458z
			 M233.876,474.359c-0.861-2.771-1.348-4.338-1.455-4.701c-0.109-0.363-0.188-0.65-0.233-0.861
			c-0.191,0.75-0.747,2.604-1.661,5.563L233.876,474.359L233.876,474.359z"/>
		<path fill="#FFFFFF" d="M247.596,476.134c0,1.16-0.417,2.074-1.252,2.742s-1.997,1.002-3.485,1.002
			c-1.371,0-2.584-0.258-3.639-0.771v-2.531c0.867,0.387,1.601,0.66,2.202,0.816c0.601,0.158,1.148,0.236,1.646,0.236
			c0.6,0,1.058-0.113,1.375-0.342c0.319-0.229,0.479-0.568,0.479-1.021c0-0.252-0.07-0.477-0.211-0.673
			c-0.143-0.196-0.347-0.386-0.62-0.565c-0.273-0.183-0.828-0.473-1.666-0.869c-0.785-0.369-1.374-0.727-1.767-1.064
			c-0.395-0.339-0.706-0.732-0.94-1.186s-0.352-0.979-0.352-1.582c0-1.138,0.385-2.031,1.154-2.684
			c0.771-0.649,1.835-0.975,3.195-0.975c0.668,0,1.305,0.078,1.912,0.236c0.605,0.156,1.241,0.381,1.903,0.668l-0.881,2.118
			c-0.686-0.28-1.252-0.479-1.699-0.591c-0.449-0.109-0.891-0.166-1.323-0.166c-0.517,0-0.911,0.119-1.188,0.359
			c-0.274,0.24-0.412,0.555-0.412,0.941c0,0.238,0.057,0.447,0.167,0.628c0.11,0.179,0.288,0.352,0.531,0.519s0.819,0.467,1.729,0.9
			c1.201,0.573,2.022,1.148,2.47,1.728S247.596,475.296,247.596,476.134z"/>
		<path fill="#FFFFFF" d="M261.588,473.261c0,2.127-0.527,3.764-1.582,4.904s-2.566,1.713-4.535,1.713s-3.479-0.57-4.535-1.713
			c-1.055-1.145-1.582-2.783-1.582-4.922c0-2.141,0.529-3.772,1.586-4.9c1.059-1.128,2.574-1.689,4.548-1.689
			c1.976,0,3.485,0.566,4.531,1.705C261.065,469.494,261.588,471.128,261.588,473.261z M252.21,473.261
			c0,1.438,0.271,2.518,0.815,3.242s1.359,1.09,2.443,1.09c2.174,0,3.261-1.441,3.261-4.332c0-2.895-1.081-4.342-3.243-4.342
			c-1.084,0-1.899,0.364-2.45,1.094C252.485,470.743,252.21,471.826,252.21,473.261z"/>
		<path fill="#FFFFFF" d="M275.651,479.703h-3.463l-5.59-9.721h-0.079c0.111,1.717,0.167,2.939,0.167,3.674v6.047h-2.435v-12.852
			h3.437l5.581,9.625h0.063c-0.088-1.67-0.132-2.852-0.132-3.543v-6.082h2.45V479.703L275.651,479.703z"/>
		<path fill="#FFFFFF" d="M286.286,479.703h-7.4v-12.852h7.4v2.232h-4.678v2.822h4.353v2.23h-4.353v3.313h4.678V479.703z"/>
		<path fill="#FFFFFF" d="M291.691,474.773v4.93h-2.725v-12.852h3.744c1.746,0,3.038,0.318,3.876,0.954
			c0.838,0.638,1.257,1.603,1.257,2.896c0,0.756-0.208,1.429-0.624,2.018s-1.005,1.053-1.767,1.387
			c1.934,2.889,3.191,4.754,3.777,5.598h-3.021l-3.067-4.93L291.691,474.773L291.691,474.773z M291.691,472.558h0.879
			c0.861,0,1.497-0.145,1.907-0.432s0.615-0.738,0.615-1.354c0-0.609-0.209-1.045-0.628-1.303s-1.068-0.387-1.947-0.387h-0.826
			V472.558L291.691,472.558z"/>
		<path fill="#FFFFFF" d="M300.7,465.826v-0.238c1.008-1.172,1.694-2.053,2.063-2.645h3.006v0.184
			c-0.305,0.305-0.825,0.758-1.56,1.358c-0.735,0.6-1.313,1.048-1.729,1.341H300.7z M300.849,479.703v-12.852h2.727v12.852H300.849z
			"/>
		<path fill="#FFFFFF" d="M314.674,479.703l-0.934-3.061h-4.685l-0.933,3.061h-2.937l4.535-12.902h3.331l4.553,12.902H314.674z
			 M313.092,474.359c-0.861-2.771-1.348-4.338-1.455-4.701c-0.109-0.363-0.188-0.65-0.233-0.861
			c-0.191,0.75-0.747,2.604-1.661,5.563L313.092,474.359L313.092,474.359z"/>
	</g>
</g>
<g>
	<g>
		<path fill="#FFFFFF" d="M983.093,468.938c-1.025,0-1.819,0.386-2.382,1.154c-0.563,0.771-0.846,1.846-0.846,3.224
			c0,2.863,1.075,4.297,3.228,4.297c0.9,0,1.995-0.227,3.276-0.678v2.285c-1.055,0.439-2.23,0.658-3.531,0.658
			c-1.869,0-3.301-0.566-4.289-1.7c-0.99-1.134-1.485-2.761-1.485-4.882c0-1.336,0.243-2.507,0.729-3.512
			c0.484-1.005,1.186-1.775,2.096-2.313c0.912-0.536,1.979-0.804,3.204-0.804c1.248,0,2.502,0.301,3.762,0.904l-0.879,2.215
			c-0.48-0.229-0.964-0.428-1.45-0.599C984.038,469.019,983.562,468.938,983.093,468.938z"/>
		<path fill="#FFFFFF" d="M999.564,466.853v8.314c0,0.949-0.212,1.781-0.638,2.496c-0.424,0.715-1.038,1.264-1.841,1.645
			c-0.805,0.383-1.753,0.57-2.85,0.57c-1.65,0-2.936-0.423-3.85-1.27c-0.914-0.849-1.371-2.008-1.371-3.479v-8.279h2.716v7.867
			c0,0.99,0.199,1.717,0.6,2.182c0.397,0.463,1.058,0.691,1.978,0.691c0.891,0,1.536-0.23,1.938-0.698
			c0.398-0.466,0.602-1.194,0.602-2.19v-7.852L999.564,466.853L999.564,466.853z"/>
		<path fill="#FFFFFF" d="M1002.71,479.703v-12.852h2.725v10.602h5.212v2.25H1002.71z"/>
		<path fill="#FFFFFF" d="M1017.836,479.703h-2.727v-10.582h-3.489v-2.27h9.703v2.27h-3.487V479.703z"/>
		<path fill="#FFFFFF" d="M1033.762,466.853v8.314c0,0.949-0.213,1.781-0.637,2.496c-0.428,0.715-1.039,1.264-1.844,1.645
			c-0.803,0.383-1.752,0.57-2.848,0.57c-1.652,0-2.938-0.423-3.852-1.27c-0.912-0.849-1.369-2.008-1.369-3.479v-8.279h2.716v7.867
			c0,0.99,0.198,1.717,0.598,2.182c0.399,0.463,1.06,0.691,1.979,0.691c0.891,0,1.537-0.23,1.938-0.698
			c0.402-0.466,0.604-1.194,0.604-2.19v-7.852L1033.762,466.853L1033.762,466.853z"/>
		<path fill="#FFFFFF" d="M1039.633,474.773v4.93h-2.727v-12.852h3.744c1.746,0,3.038,0.318,3.876,0.954
			c0.838,0.638,1.257,1.603,1.257,2.896c0,0.756-0.208,1.429-0.624,2.018s-1.005,1.053-1.767,1.387
			c1.934,2.889,3.193,4.754,3.779,5.598h-3.023l-3.065-4.93L1039.633,474.773L1039.633,474.773z M1039.633,472.558h0.879
			c0.861,0,1.497-0.145,1.907-0.432c0.409-0.287,0.613-0.738,0.613-1.354c0-0.609-0.21-1.045-0.628-1.303
			c-0.42-0.258-1.066-0.387-1.945-0.387h-0.826V472.558L1039.633,472.558z"/>
		<path fill="#FFFFFF" d="M1056.656,479.703l-0.932-3.061h-4.687l-0.932,3.061h-2.937l4.534-12.902h3.331l4.555,12.902H1056.656z
			 M1055.074,474.359c-0.859-2.771-1.347-4.338-1.454-4.701s-0.187-0.65-0.231-0.861c-0.193,0.75-0.747,2.604-1.661,5.563
			L1055.074,474.359L1055.074,474.359z"/>
		<path fill="#FFFFFF" d="M1074.763,470.861c0,1.383-0.435,2.439-1.296,3.174c-0.865,0.73-2.096,1.098-3.688,1.098h-1.169v4.57
			h-2.725v-12.852h4.104c1.561,0,2.744,0.338,3.557,1.009S1074.763,469.531,1074.763,470.861z M1068.611,472.9h0.896
			c0.838,0,1.465-0.165,1.881-0.496s0.624-0.813,0.624-1.445c0-0.639-0.174-1.111-0.523-1.416c-0.348-0.305-0.895-0.457-1.639-0.457
			h-1.239V472.9z"/>
		<path fill="#FFFFFF" d="M1088.852,473.261c0,2.127-0.527,3.764-1.582,4.904s-2.566,1.713-4.535,1.713s-3.479-0.57-4.535-1.713
			c-1.055-1.145-1.582-2.783-1.582-4.922c0-2.141,0.529-3.772,1.586-4.9c1.061-1.128,2.574-1.689,4.549-1.689
			c1.977,0,3.484,0.566,4.531,1.705C1088.327,469.494,1088.852,471.128,1088.852,473.261z M1079.474,473.261
			c0,1.438,0.271,2.518,0.817,3.242c0.545,0.726,1.357,1.09,2.441,1.09c2.174,0,3.261-1.441,3.261-4.332
			c0-2.895-1.081-4.342-3.241-4.342c-1.084,0-1.901,0.364-2.452,1.094C1079.748,470.743,1079.474,471.826,1079.474,473.261z"/>
		<path fill="#FFFFFF" d="M1100.392,470.861c0,1.383-0.433,2.439-1.296,3.174c-0.865,0.73-2.094,1.098-3.688,1.098h-1.169v4.57
			h-2.725v-12.852h4.104c1.561,0,2.744,0.338,3.557,1.009S1100.392,469.531,1100.392,470.861z M1094.24,472.9h0.896
			c0.838,0,1.465-0.165,1.881-0.496s0.624-0.813,0.624-1.445c0-0.639-0.174-1.111-0.523-1.416c-0.348-0.305-0.895-0.457-1.639-0.457
			h-1.239V472.9z"/>
		<path fill="#FFFFFF" d="M1113.277,466.853v8.314c0,0.949-0.212,1.781-0.638,2.496c-0.424,0.715-1.038,1.264-1.841,1.645
			c-0.804,0.383-1.752,0.57-2.85,0.57c-1.65,0-2.936-0.423-3.85-1.27c-0.914-0.849-1.371-2.008-1.371-3.479v-8.279h2.716v7.867
			c0,0.99,0.199,1.717,0.6,2.182c0.397,0.463,1.058,0.691,1.978,0.691c0.892,0,1.536-0.23,1.938-0.698
			c0.398-0.466,0.602-1.194,0.602-2.19v-7.852L1113.277,466.853L1113.277,466.853z"/>
		<path fill="#FFFFFF" d="M1116.423,479.703v-12.852h2.725v10.602h5.212v2.25H1116.423z"/>
		<path fill="#FFFFFF" d="M1134.457,479.703l-0.933-3.061h-4.685l-0.934,3.061h-2.936l4.535-12.902h3.331l4.553,12.902H1134.457z
			 M1132.875,474.359c-0.86-2.771-1.348-4.338-1.453-4.701c-0.109-0.363-0.188-0.65-0.233-0.861
			c-0.193,0.75-0.747,2.604-1.661,5.563L1132.875,474.359L1132.875,474.359z"/>
		<path fill="#FFFFFF" d="M1141.736,474.773v4.93h-2.725v-12.852h3.744c1.745,0,3.038,0.318,3.876,0.954
			c0.838,0.638,1.257,1.603,1.257,2.896c0,0.756-0.208,1.429-0.624,2.018s-1.005,1.053-1.769,1.387
			c1.936,2.889,3.193,4.754,3.779,5.598h-3.021l-3.067-4.93L1141.736,474.773L1141.736,474.773z M1141.736,472.558h0.879
			c0.861,0,1.497-0.145,1.907-0.432s0.615-0.738,0.615-1.354c0-0.609-0.209-1.045-0.629-1.303c-0.418-0.258-1.067-0.387-1.946-0.387
			h-0.826V472.558L1141.736,472.558z"/>
	</g>
</g>
<g>
	<g>
		<path fill="#FFE000" d="M926.627,386.457c0,0.867-0.298,1.535-0.89,2.002s-1.438,0.699-2.54,0.699h-1.008v3.368h-0.996v-8.565
			h2.223C925.557,383.96,926.627,384.792,926.627,386.457z M922.192,388.302h0.896c0.883,0,1.521-0.143,1.916-0.428
			c0.395-0.285,0.592-0.742,0.592-1.371c0-0.566-0.188-0.988-0.559-1.266c-0.369-0.278-0.947-0.416-1.732-0.416h-1.113V388.302
			L922.192,388.302z"/>
		<path fill="#FFE000" d="M935.856,388.231c0,1.371-0.347,2.449-1.04,3.233c-0.692,0.785-1.657,1.179-2.892,1.179
			c-1.264,0-2.235-0.386-2.921-1.156c-0.688-0.771-1.028-1.86-1.028-3.269c0-1.395,0.344-2.475,1.031-3.241
			c0.687-0.768,1.664-1.151,2.93-1.151c1.229,0,2.191,0.391,2.883,1.172C935.511,385.778,935.856,386.856,935.856,388.231z
			 M929.03,388.231c0,1.16,0.247,2.041,0.741,2.642s1.212,0.897,2.153,0.897c0.949,0,1.666-0.299,2.148-0.896
			c0.484-0.598,0.729-1.479,0.729-2.645c0-1.15-0.241-2.023-0.726-2.621c-0.481-0.596-1.194-0.895-2.142-0.895
			c-0.949,0-1.671,0.301-2.165,0.9C929.276,386.215,929.03,387.087,929.03,388.231z"/>
		<path fill="#FFE000" d="M938.762,388.964v3.563h-0.996v-8.564h2.35c1.053,0,1.827,0.201,2.329,0.604s0.753,1.009,0.753,1.815
			c0,1.134-0.574,1.897-1.723,2.297l2.326,3.851h-1.18l-2.072-3.563L938.762,388.964L938.762,388.964z M938.762,388.108h1.365
			c0.701,0,1.219-0.14,1.547-0.418s0.492-0.698,0.492-1.258c0-0.565-0.169-0.976-0.503-1.226s-0.868-0.375-1.606-0.375h-1.295
			V388.108L938.762,388.108z"/>
		<path fill="#FFE000" d="M947.821,392.526h-0.996v-7.683h-2.713v-0.885h6.422v0.885h-2.713V392.526z"/>
		<path fill="#FFE000" d="M957.206,392.526l-1.064-2.726h-3.436l-1.055,2.726h-1.008l3.387-8.603h0.838l3.369,8.603H957.206z
			 M955.829,388.906l-0.994-2.654c-0.131-0.336-0.264-0.748-0.398-1.235c-0.086,0.375-0.209,0.787-0.369,1.235l-1.008,2.654H955.829
			z"/>
		<path fill="#FFE000" d="M966.254,388.162c0,1.414-0.386,2.496-1.151,3.243c-0.767,0.748-1.872,1.121-3.313,1.121h-2.371v-8.565
			h2.625c1.33,0,2.365,0.369,3.104,1.106C965.885,385.806,966.254,386.837,966.254,388.162z M965.198,388.196
			c0-1.116-0.278-1.959-0.841-2.524c-0.561-0.565-1.394-0.851-2.499-0.851h-1.447v6.845h1.213c1.188,0,2.08-0.291,2.68-0.875
			C964.902,390.207,965.198,389.341,965.198,388.196z"/>
		<path fill="#FFE000" d="M973.549,392.526l-1.066-2.726h-3.434l-1.057,2.726h-1.008l3.388-8.603h0.839l3.368,8.603H973.549z
			 M972.172,388.906l-0.996-2.654c-0.129-0.336-0.264-0.748-0.398-1.235c-0.086,0.375-0.209,0.787-0.369,1.235l-1.008,2.654H972.172
			z"/>
		<path fill="#FFE000" d="M980.592,390.248c0,0.754-0.273,1.342-0.82,1.765c-0.547,0.422-1.289,0.633-2.227,0.633
			c-1.018,0-1.799-0.131-2.346-0.394v-0.961c0.354,0.147,0.734,0.267,1.148,0.353s0.824,0.129,1.229,0.129
			c0.664,0,1.164-0.125,1.5-0.377s0.504-0.604,0.504-1.054c0-0.297-0.06-0.539-0.179-0.729c-0.119-0.188-0.316-0.363-0.598-0.523
			s-0.704-0.342-1.274-0.545c-0.797-0.285-1.366-0.623-1.708-1.016c-0.342-0.391-0.513-0.898-0.513-1.527
			c0-0.66,0.248-1.188,0.744-1.576s1.15-0.586,1.969-0.586c0.852,0,1.635,0.156,2.35,0.471l-0.311,0.865
			c-0.707-0.297-1.395-0.443-2.063-0.443c-0.527,0-0.939,0.111-1.236,0.34c-0.297,0.227-0.445,0.541-0.445,0.941
			c0,0.299,0.055,0.541,0.164,0.73c0.109,0.188,0.294,0.361,0.554,0.521c0.262,0.157,0.657,0.331,1.192,0.522
			c0.898,0.319,1.517,0.664,1.854,1.03C980.42,389.185,980.592,389.662,980.592,390.248z"/>
		<path fill="#FFE000" d="M995.416,388.162c0,1.414-0.385,2.496-1.15,3.243c-0.769,0.748-1.872,1.121-3.313,1.121h-2.373v-8.565
			h2.625c1.332,0,2.367,0.369,3.105,1.106C995.048,385.806,995.416,386.837,995.416,388.162z M994.362,388.196
			c0-1.116-0.28-1.959-0.841-2.524s-1.394-0.851-2.499-0.851h-1.447v6.845h1.213c1.188,0,2.08-0.291,2.68-0.875
			C994.064,390.207,994.362,389.341,994.362,388.196z"/>
		<path fill="#FFE000" d="M1002.102,392.526h-4.775v-8.565h4.775v0.886h-3.779v2.76h3.551v0.879h-3.551v3.152h3.779V392.526z"/>
		<path fill="#FFE000" d="M1013.954,388.162c0,1.414-0.384,2.496-1.149,3.243c-0.769,0.748-1.872,1.121-3.313,1.121h-2.373v-8.565
			h2.625c1.332,0,2.367,0.369,3.105,1.106C1013.587,385.806,1013.954,386.837,1013.954,388.162z M1012.901,388.196
			c0-1.116-0.28-1.959-0.841-2.524c-0.563-0.565-1.394-0.851-2.499-0.851h-1.447v6.845h1.213c1.188,0,2.08-0.291,2.68-0.875
			C1012.603,390.207,1012.901,389.341,1012.901,388.196z"/>
		<path fill="#FFE000" d="M1015.865,392.526v-8.565h0.996v8.565H1015.865z"/>
		<path fill="#FFE000" d="M1024.045,390.248c0,0.754-0.273,1.342-0.82,1.765c-0.547,0.422-1.289,0.633-2.227,0.633
			c-1.018,0-1.799-0.131-2.346-0.394v-0.961c0.354,0.147,0.734,0.267,1.148,0.353s0.824,0.129,1.229,0.129
			c0.664,0,1.164-0.125,1.5-0.377s0.504-0.604,0.504-1.054c0-0.297-0.06-0.539-0.179-0.729c-0.119-0.188-0.317-0.363-0.598-0.523
			c-0.281-0.16-0.704-0.342-1.274-0.545c-0.797-0.285-1.366-0.623-1.708-1.016c-0.342-0.391-0.513-0.898-0.513-1.527
			c0-0.66,0.248-1.188,0.744-1.576s1.15-0.586,1.969-0.586c0.852,0,1.635,0.156,2.35,0.471l-0.311,0.865
			c-0.707-0.297-1.396-0.443-2.063-0.443c-0.525,0-0.938,0.111-1.234,0.34c-0.297,0.227-0.445,0.541-0.445,0.941
			c0,0.299,0.055,0.541,0.164,0.73c0.109,0.188,0.294,0.361,0.554,0.521c0.262,0.157,0.657,0.331,1.192,0.522
			c0.898,0.319,1.517,0.664,1.854,1.03C1023.872,389.185,1024.045,389.662,1024.045,390.248z"/>
		<path fill="#FFE000" d="M1029.465,384.728c-0.941,0-1.687,0.314-2.229,0.941s-0.817,1.484-0.817,2.574
			c0,1.121,0.265,1.988,0.788,2.6c0.525,0.612,1.274,0.916,2.247,0.916c0.6,0,1.279-0.107,2.045-0.322v0.873
			c-0.594,0.225-1.326,0.334-2.195,0.334c-1.264,0-2.235-0.383-2.922-1.146c-0.687-0.766-1.027-1.854-1.027-3.266
			c0-0.883,0.165-1.654,0.495-2.318s0.807-1.178,1.43-1.535s1.356-0.539,2.2-0.539c0.896,0,1.684,0.164,2.354,0.492l-0.422,0.854
			C1030.762,384.88,1030.114,384.728,1029.465,384.728z"/>
		<path fill="#FFE000" d="M1040.803,388.231c0,1.371-0.349,2.449-1.04,3.233c-0.693,0.785-1.657,1.179-2.894,1.179
			c-1.262,0-2.233-0.386-2.921-1.156c-0.686-0.771-1.026-1.86-1.026-3.269c0-1.395,0.344-2.475,1.029-3.241
			c0.688-0.768,1.664-1.151,2.932-1.151c1.229,0,2.189,0.391,2.883,1.172C1040.457,385.778,1040.803,386.856,1040.803,388.231z
			 M1033.977,388.231c0,1.16,0.247,2.041,0.741,2.642s1.212,0.897,2.151,0.897c0.949,0,1.666-0.299,2.15-0.896
			s0.729-1.479,0.729-2.645c0-1.15-0.241-2.023-0.726-2.621c-0.481-0.596-1.196-0.895-2.142-0.895c-0.949,0-1.671,0.301-2.165,0.9
			C1034.223,386.215,1033.977,387.087,1033.977,388.231z"/>
		<path fill="#FFE000" d="M1047.547,390.248c0,0.754-0.273,1.342-0.82,1.765c-0.547,0.422-1.289,0.633-2.227,0.633
			c-1.018,0-1.799-0.131-2.346-0.394v-0.961c0.354,0.147,0.734,0.267,1.148,0.353s0.822,0.129,1.229,0.129
			c0.664,0,1.164-0.125,1.5-0.377s0.504-0.604,0.504-1.054c0-0.297-0.06-0.539-0.179-0.729c-0.119-0.188-0.317-0.363-0.598-0.523
			c-0.281-0.16-0.704-0.342-1.274-0.545c-0.797-0.285-1.366-0.623-1.708-1.016c-0.342-0.391-0.513-0.898-0.513-1.527
			c0-0.66,0.248-1.188,0.744-1.576s1.15-0.586,1.969-0.586c0.852,0,1.635,0.156,2.35,0.471l-0.311,0.865
			c-0.707-0.297-1.396-0.443-2.063-0.443c-0.525,0-0.938,0.111-1.234,0.34c-0.297,0.227-0.445,0.541-0.445,0.941
			c0,0.299,0.056,0.541,0.164,0.73c0.109,0.188,0.294,0.361,0.554,0.521c0.262,0.157,0.657,0.331,1.192,0.522
			c0.896,0.319,1.517,0.664,1.854,1.03C1047.375,389.185,1047.547,389.662,1047.547,390.248z"/>
	</g>
</g>
<line fill="none" stroke="#FFFFFF" stroke-miterlimit="10" x1="174.965" y1="400.447" x2="1191.969" y2="400.148"/>
<g>
	<g>
		<path fill="#FFFFFF" d="M868.629,330.567c0,0.867-0.297,1.533-0.89,2c-0.592,0.468-1.438,0.701-2.54,0.701h-1.008v3.368h-0.996
			v-8.565h2.223C867.559,328.071,868.629,328.903,868.629,330.567z M864.194,332.414h0.896c0.883,0,1.521-0.144,1.916-0.429
			c0.395-0.284,0.592-0.741,0.592-1.37c0-0.566-0.188-0.988-0.559-1.267c-0.369-0.277-0.947-0.416-1.732-0.416h-1.113V332.414
			L864.194,332.414z"/>
		<path fill="#FFFFFF" d="M877.858,332.343c0,1.371-0.347,2.449-1.04,3.234c-0.692,0.785-1.657,1.178-2.892,1.178
			c-1.264,0-2.235-0.387-2.921-1.158c-0.688-0.771-1.028-1.859-1.028-3.266c0-1.395,0.344-2.477,1.031-3.244
			c0.687-0.768,1.664-1.15,2.93-1.15c1.229,0,2.191,0.393,2.883,1.172C877.513,329.89,877.858,330.968,877.858,332.343z
			 M871.031,332.343c0,1.16,0.247,2.039,0.741,2.639c0.494,0.602,1.212,0.9,2.153,0.9c0.948,0,1.666-0.299,2.148-0.896
			c0.484-0.596,0.729-1.479,0.729-2.643c0-1.152-0.241-2.027-0.726-2.623c-0.481-0.596-1.194-0.893-2.142-0.893
			c-0.949,0-1.671,0.299-2.165,0.898C871.278,330.324,871.031,331.199,871.031,332.343z"/>
		<path fill="#FFFFFF" d="M880.764,333.076v3.563h-0.996v-8.566h2.35c1.053,0,1.827,0.201,2.329,0.604
			c0.502,0.403,0.753,1.008,0.753,1.816c0,1.133-0.574,1.898-1.723,2.297l2.326,3.85h-1.18l-2.072-3.563L880.764,333.076
			L880.764,333.076z M880.764,332.22h1.365c0.701,0,1.219-0.141,1.547-0.42s0.492-0.697,0.492-1.256
			c0-0.566-0.169-0.975-0.503-1.225s-0.868-0.375-1.606-0.375h-1.295V332.22L880.764,332.22z"/>
		<path fill="#FFFFFF" d="M889.823,336.638h-0.996v-7.682h-2.713v-0.885h6.422v0.885h-2.713V336.638z"/>
		<path fill="#FFFFFF" d="M899.209,336.638l-1.066-2.725h-3.434l-1.057,2.725h-1.008l3.387-8.602h0.838l3.369,8.602H899.209z
			 M897.831,333.017l-0.994-2.654c-0.131-0.336-0.264-0.746-0.398-1.234c-0.086,0.375-0.209,0.787-0.369,1.234l-1.008,2.654H897.831
			z"/>
		<path fill="#FFFFFF" d="M908.256,332.272c0,1.414-0.386,2.494-1.151,3.242s-1.872,1.123-3.313,1.123h-2.371v-8.566h2.625
			c1.33,0,2.365,0.369,3.104,1.106C907.887,329.916,908.256,330.949,908.256,332.272z M907.2,332.308
			c0-1.117-0.278-1.959-0.841-2.523c-0.561-0.566-1.394-0.852-2.499-0.852h-1.447v6.844h1.214c1.188,0,2.079-0.293,2.679-0.877
			C906.904,334.315,907.2,333.453,907.2,332.308z"/>
		<path fill="#FFFFFF" d="M915.551,336.638l-1.066-2.725h-3.434l-1.057,2.725h-1.008l3.389-8.602h0.838l3.369,8.602H915.551z
			 M914.174,333.017l-0.996-2.654c-0.129-0.336-0.262-0.746-0.398-1.234c-0.086,0.375-0.209,0.787-0.369,1.234l-1.008,2.654H914.174
			z"/>
		<path fill="#FFFFFF" d="M922.594,334.358c0,0.754-0.273,1.343-0.82,1.765s-1.289,0.633-2.227,0.633
			c-1.018,0-1.797-0.131-2.346-0.394v-0.961c0.354,0.147,0.734,0.267,1.148,0.353s0.824,0.129,1.229,0.129
			c0.664,0,1.164-0.127,1.5-0.379s0.506-0.603,0.506-1.051c0-0.297-0.062-0.541-0.181-0.729s-0.316-0.363-0.598-0.522
			c-0.281-0.16-0.704-0.343-1.274-0.546c-0.797-0.284-1.364-0.622-1.708-1.014c-0.342-0.392-0.513-0.899-0.513-1.529
			c0-0.659,0.248-1.187,0.744-1.575c0.496-0.392,1.152-0.586,1.969-0.586c0.854,0,1.635,0.155,2.35,0.469l-0.311,0.867
			c-0.707-0.297-1.395-0.445-2.063-0.445c-0.527,0-0.939,0.113-1.236,0.341s-0.445,0.541-0.445,0.942
			c0,0.297,0.055,0.539,0.164,0.729c0.109,0.189,0.294,0.362,0.554,0.521c0.262,0.158,0.657,0.334,1.192,0.524
			c0.898,0.319,1.518,0.664,1.854,1.031C922.422,333.297,922.594,333.772,922.594,334.358z"/>
		<path fill="#FFFFFF" d="M934.301,332.272c0,1.414-0.384,2.494-1.151,3.242c-0.767,0.748-1.872,1.123-3.313,1.123h-2.373v-8.566
			h2.625c1.332,0,2.366,0.369,3.104,1.106C933.931,329.916,934.301,330.949,934.301,332.272z M933.245,332.308
			c0-1.117-0.278-1.959-0.841-2.523c-0.561-0.566-1.394-0.852-2.499-0.852h-1.447v6.844h1.215c1.188,0,2.079-0.293,2.678-0.877
			C932.948,334.315,933.245,333.453,933.245,332.308z"/>
		<path fill="#FFFFFF" d="M940.987,336.638h-4.773v-8.566h4.773v0.887h-3.779v2.76h3.553v0.881h-3.553v3.15h3.779V336.638z"/>
		<path fill="#FFFFFF" d="M951.434,330.567c0,0.867-0.296,1.533-0.888,2c-0.594,0.468-1.438,0.701-2.54,0.701h-1.008v3.368h-0.996
			v-8.565h2.221C950.364,328.071,951.434,328.903,951.434,330.567z M946.997,332.414h0.896c0.883,0,1.521-0.144,1.916-0.429
			c0.395-0.284,0.592-0.741,0.592-1.37c0-0.566-0.186-0.988-0.557-1.267c-0.371-0.277-0.949-0.416-1.734-0.416h-1.113V332.414z"/>
		<path fill="#FFFFFF" d="M958.002,336.638h-4.775v-8.566h4.775v0.887h-3.779v2.76h3.551v0.881h-3.551v3.15h3.779V336.638z"/>
		<path fill="#FFFFFF" d="M959.901,336.638v-8.566h0.996v7.664h3.779v0.902H959.901z"/>
		<path fill="#FFFFFF" d="M966,327.24c0.188-0.242,0.39-0.535,0.604-0.88c0.216-0.344,0.388-0.644,0.513-0.896h1.186v0.123
			c-0.172,0.254-0.428,0.564-0.77,0.938c-0.34,0.371-0.635,0.658-0.885,0.86H966V327.24z M966.129,336.638v-8.566h0.996v8.566
			H966.129z"/>
		<path fill="#FFFFFF" d="M973.143,328.839c-0.941,0-1.686,0.313-2.229,0.939c-0.544,0.625-0.815,1.486-0.815,2.576
			c0,1.121,0.263,1.984,0.788,2.598c0.523,0.611,1.272,0.918,2.247,0.918c0.598,0,1.277-0.107,2.045-0.322v0.873
			c-0.595,0.223-1.326,0.334-2.197,0.334c-1.262,0-2.235-0.383-2.921-1.148c-0.688-0.765-1.028-1.854-1.028-3.264
			c0-0.883,0.165-1.656,0.495-2.32s0.808-1.176,1.43-1.535c0.623-0.357,1.356-0.539,2.2-0.539c0.898,0,1.686,0.164,2.355,0.492
			l-0.422,0.855C974.44,328.992,973.791,328.839,973.143,328.839z"/>
		<path fill="#FFFFFF" d="M983.514,328.071v5.544c0,0.977-0.295,1.743-0.885,2.303c-0.592,0.56-1.4,0.838-2.434,0.838
			s-1.829-0.28-2.394-0.844c-0.565-0.563-0.849-1.336-0.849-2.32v-5.52h0.996v5.59c0,0.715,0.195,1.265,0.586,1.646
			c0.393,0.383,0.967,0.574,1.725,0.574c0.723,0,1.277-0.193,1.67-0.578c0.391-0.385,0.586-0.936,0.586-1.654v-5.576
			L983.514,328.071L983.514,328.071z"/>
		<path fill="#FFFFFF" d="M985.781,336.638v-8.566h0.996v7.664h3.779v0.902H985.781z"/>
		<path fill="#FFFFFF" d="M997.395,336.638l-1.066-2.725h-3.434l-1.055,2.725h-1.008l3.387-8.602h0.838l3.369,8.602H997.395z
			 M996.018,333.017l-0.996-2.654c-0.129-0.336-0.262-0.746-0.398-1.234c-0.086,0.375-0.209,0.787-0.367,1.234l-1.01,2.654H996.018z
			"/>
		<path fill="#FFFFFF" d="M1004.438,334.358c0,0.754-0.273,1.343-0.82,1.765s-1.289,0.633-2.227,0.633
			c-1.016,0-1.797-0.131-2.344-0.394v-0.961c0.352,0.147,0.732,0.267,1.146,0.353s0.824,0.129,1.23,0.129
			c0.664,0,1.164-0.127,1.5-0.379s0.504-0.603,0.504-1.051c0-0.297-0.062-0.541-0.18-0.729s-0.317-0.363-0.599-0.522
			c-0.281-0.16-0.704-0.343-1.272-0.546c-0.799-0.284-1.366-0.622-1.709-1.014s-0.514-0.899-0.514-1.529
			c0-0.659,0.248-1.187,0.744-1.575c0.496-0.392,1.152-0.586,1.969-0.586c0.854,0,1.637,0.155,2.352,0.469l-0.313,0.867
			c-0.707-0.297-1.395-0.445-2.063-0.445c-0.527,0-0.939,0.113-1.236,0.341s-0.445,0.541-0.445,0.942
			c0,0.297,0.057,0.539,0.164,0.729c0.109,0.189,0.294,0.362,0.556,0.521c0.26,0.158,0.655,0.334,1.19,0.524
			c0.898,0.319,1.519,0.664,1.854,1.031C1004.266,333.297,1004.438,333.772,1004.438,334.358z"/>
	</g>
</g>
<line fill="none" stroke="#FFFFFF" stroke-miterlimit="10" x1="800.924" y1="343.796" x2="1090.602" y2="343.558"/>
<line fill="none" stroke="#FFFFFF" stroke-miterlimit="10" x1="440.719" y1="251.719" x2="926.243" y2="251.719"/>
<g>
	<polygon fill="#FFFFFF" points="-0.243,496.966 684.733,116.791 0.243,497.841 	"/>
</g>
<g>
	<polygon fill="#FFFFFF" points="485.821,497.172 684.733,116.791 486.706,497.635 	"/>
</g>
<g>
	<polygon fill="#FFFFFF" points="879.286,497.631 684.733,116.791 880.178,497.176 	"/>
</g>
<g>
	<polygon fill="#FFFFFF" points="1365.754,497.84 684.733,116.791 1366.241,496.967 	"/>
</g>
<g>
	<g>
		<path fill="#FFFFFF" d="M642.701,476.134c0,1.16-0.417,2.074-1.252,2.742s-1.997,1.002-3.483,1.002
			c-1.371,0-2.584-0.258-3.641-0.771v-2.531c0.867,0.387,1.603,0.66,2.202,0.816c0.603,0.158,1.15,0.236,1.648,0.236
			c0.598,0,1.056-0.113,1.375-0.342c0.317-0.229,0.479-0.568,0.479-1.021c0-0.252-0.068-0.477-0.211-0.673
			c-0.141-0.196-0.347-0.386-0.62-0.565c-0.271-0.183-0.828-0.473-1.666-0.869c-0.784-0.369-1.374-0.727-1.767-1.064
			c-0.395-0.339-0.706-0.732-0.94-1.186c-0.232-0.452-0.352-0.979-0.352-1.582c0-1.138,0.385-2.031,1.156-2.684
			c0.771-0.649,1.835-0.975,3.193-0.975c0.668,0,1.307,0.078,1.912,0.236c0.607,0.156,1.241,0.381,1.903,0.668l-0.879,2.118
			c-0.688-0.28-1.252-0.479-1.701-0.591c-0.449-0.109-0.889-0.166-1.323-0.166c-0.516,0-0.911,0.119-1.187,0.359
			c-0.276,0.24-0.413,0.555-0.413,0.941c0,0.238,0.056,0.447,0.167,0.628c0.109,0.179,0.289,0.352,0.531,0.519
			s0.818,0.467,1.728,0.9c1.201,0.573,2.023,1.148,2.47,1.728C642.48,474.588,642.701,475.296,642.701,476.134z"/>
		<path fill="#FFFFFF" d="M644.882,465.826v-0.238c1.008-1.172,1.694-2.053,2.063-2.645h3.006v0.184
			c-0.305,0.305-0.823,0.758-1.56,1.358c-0.735,0.6-1.312,1.048-1.728,1.341H644.882z M645.031,479.703v-12.852h2.727v12.852
			H645.031z"/>
		<path fill="#FFFFFF" d="M656.431,479.703l-3.094-10.08h-0.079c0.109,2.051,0.167,3.418,0.167,4.104v5.979h-2.437v-12.852h3.709
			l3.041,9.826h0.055l3.226-9.826h3.709v12.852h-2.54v-6.082c0-0.287,0.004-0.617,0.013-0.992c0.011-0.375,0.049-1.371,0.119-2.988
			h-0.079l-3.313,10.063h-2.497V479.703L656.431,479.703z"/>
		<path fill="#FFFFFF" d="M667.962,466.853h3.999c1.82,0,3.145,0.262,3.968,0.778c0.823,0.52,1.233,1.343,1.233,2.476
			c0,0.768-0.18,1.396-0.541,1.891c-0.359,0.493-0.839,0.787-1.437,0.887v0.088c0.813,0.184,1.402,0.521,1.762,1.021
			c0.36,0.499,0.541,1.16,0.541,1.984c0,1.174-0.423,2.087-1.27,2.742c-0.849,0.656-1.997,0.984-3.45,0.984h-4.808L667.962,466.853
			L667.962,466.853z M670.687,471.943h1.582c0.738,0,1.271-0.115,1.604-0.346c0.331-0.229,0.497-0.604,0.497-1.133
			c0-0.492-0.18-0.846-0.541-1.06c-0.359-0.214-0.93-0.321-1.709-0.321h-1.433V471.943z M670.687,474.105v3.348h1.775
			c0.75,0,1.304-0.145,1.661-0.43c0.355-0.287,0.534-0.729,0.534-1.318c0-1.066-0.762-1.6-2.284-1.6H670.687z"/>
		<path fill="#FFFFFF" d="M691.719,473.261c0,2.127-0.527,3.764-1.582,4.904s-2.566,1.713-4.535,1.713s-3.48-0.57-4.535-1.713
			c-1.055-1.145-1.582-2.783-1.582-4.922c0-2.141,0.529-3.772,1.586-4.9c1.059-1.128,2.574-1.689,4.548-1.689
			c1.976,0,3.485,0.566,4.531,1.705C691.196,469.494,691.719,471.128,691.719,473.261z M682.341,473.261
			c0,1.438,0.271,2.518,0.815,3.242s1.359,1.09,2.443,1.09c2.174,0,3.261-1.441,3.261-4.332c0-2.895-1.081-4.342-3.243-4.342
			c-1.084,0-1.899,0.364-2.452,1.094C682.615,470.743,682.341,471.826,682.341,473.261z"/>
		<path fill="#FFFFFF" d="M694.382,479.703v-12.852h2.725v10.602h5.212v2.25H694.382z"/>
		<path fill="#FFFFFF" d="M716.214,473.261c0,2.127-0.527,3.764-1.582,4.904c-1.057,1.142-2.566,1.713-4.535,1.713
			s-3.48-0.57-4.535-1.713c-1.055-1.145-1.582-2.783-1.582-4.922c0-2.141,0.529-3.772,1.586-4.9
			c1.059-1.128,2.574-1.689,4.548-1.689c1.976,0,3.485,0.566,4.53,1.705C715.692,469.494,716.214,471.128,716.214,473.261z
			 M706.836,473.261c0,1.438,0.271,2.518,0.815,3.242s1.359,1.09,2.443,1.09c2.174,0,3.261-1.441,3.261-4.332
			c0-2.895-1.081-4.342-3.243-4.342c-1.084,0-1.899,0.364-2.452,1.094C707.111,470.743,706.836,471.826,706.836,473.261z"/>
		<path fill="#FFFFFF" d="M726.462,476.134c0,1.16-0.417,2.074-1.253,2.742c-0.834,0.668-1.996,1.002-3.484,1.002
			c-1.371,0-2.584-0.258-3.639-0.771v-2.531c0.865,0.387,1.602,0.66,2.199,0.816c0.604,0.158,1.15,0.236,1.648,0.236
			c0.598,0,1.057-0.113,1.375-0.342c0.32-0.229,0.479-0.568,0.479-1.021c0-0.252-0.068-0.477-0.211-0.673
			c-0.141-0.196-0.347-0.386-0.619-0.565c-0.271-0.184-0.826-0.473-1.664-0.869c-0.785-0.369-1.374-0.727-1.769-1.064
			c-0.393-0.339-0.706-0.732-0.938-1.186c-0.234-0.452-0.354-0.979-0.354-1.582c0-1.138,0.386-2.031,1.155-2.684
			c0.771-0.648,1.836-0.975,3.194-0.975c0.669,0,1.306,0.078,1.911,0.236c0.605,0.156,1.24,0.381,1.902,0.668l-0.879,2.118
			c-0.688-0.28-1.252-0.479-1.701-0.591c-0.447-0.109-0.889-0.166-1.322-0.166c-0.516,0-0.911,0.119-1.187,0.359
			c-0.276,0.24-0.413,0.555-0.413,0.941c0,0.238,0.056,0.447,0.167,0.628c0.111,0.179,0.288,0.352,0.532,0.519
			c0.24,0.167,0.816,0.467,1.727,0.9c1.201,0.573,2.024,1.148,2.47,1.728C726.238,474.588,726.462,475.296,726.462,476.134z"/>
	</g>
</g>
<line fill="none" stroke="#FFFFFF" stroke-miterlimit="10" x1="776.809" y1="296.603" x2="1006.231" y2="296.416"/>
<line fill="none" stroke="#FFFFFF" stroke-miterlimit="10" x1="314.643" y1="322.505" x2="790.022" y2="322.299"/>
<g>
	<g>
		<path fill="#FFFFFF" d="M336.381,388.231c0,1.371-0.349,2.449-1.04,3.233c-0.693,0.785-1.657,1.179-2.894,1.179
			c-1.262,0-2.233-0.386-2.921-1.156c-0.686-0.771-1.026-1.86-1.026-3.269c0-1.395,0.344-2.475,1.029-3.241
			c0.688-0.768,1.664-1.151,2.932-1.151c1.229,0,2.189,0.391,2.883,1.172C336.034,385.778,336.381,386.856,336.381,388.231z
			 M329.555,388.231c0,1.16,0.247,2.041,0.741,2.642c0.492,0.601,1.212,0.897,2.151,0.897c0.949,0,1.666-0.299,2.15-0.896
			c0.482-0.598,0.727-1.479,0.727-2.645c0-1.15-0.239-2.023-0.724-2.621c-0.483-0.596-1.196-0.895-2.142-0.895
			c-0.949,0-1.673,0.301-2.165,0.9C329.801,386.215,329.555,387.087,329.555,388.231z"/>
		<path fill="#FFFFFF" d="M343.723,386.457c0,0.867-0.296,1.535-0.888,2.002c-0.594,0.467-1.438,0.699-2.54,0.699h-1.01v3.368
			h-0.996v-8.565h2.223C342.653,383.96,343.723,384.792,343.723,386.457z M339.286,388.302h0.896c0.883,0,1.521-0.143,1.916-0.428
			c0.395-0.285,0.592-0.742,0.592-1.371c0-0.566-0.186-0.988-0.557-1.266c-0.371-0.278-0.949-0.416-1.734-0.416h-1.113V388.302
			L339.286,388.302z"/>
		<path fill="#FFFFFF" d="M350.29,392.526h-4.773v-8.565h4.773v0.886h-3.777v2.76h3.551v0.879h-3.551v3.152h3.777V392.526z"/>
		<path fill="#FFFFFF" d="M353.186,388.964v3.563h-0.996v-8.564h2.35c1.053,0,1.827,0.201,2.329,0.604s0.753,1.009,0.753,1.815
			c0,1.134-0.572,1.897-1.723,2.297l2.326,3.851h-1.178l-2.074-3.563L353.186,388.964L353.186,388.964z M353.186,388.108h1.365
			c0.703,0,1.219-0.14,1.547-0.418s0.492-0.698,0.492-1.258c0-0.565-0.167-0.976-0.501-1.226s-0.87-0.375-1.608-0.375h-1.295
			V388.108L353.186,388.108z"/>
		<path fill="#FFFFFF" d="M364.991,392.526l-1.064-2.726h-3.436l-1.055,2.726h-1.008l3.387-8.603h0.838l3.369,8.603H364.991z
			 M363.615,388.906l-0.996-2.654c-0.129-0.336-0.262-0.748-0.396-1.235c-0.086,0.375-0.209,0.787-0.369,1.235l-1.008,2.654H363.615
			z"/>
		<path fill="#FFFFFF" d="M369.838,392.526h-0.996v-7.683h-2.713v-0.885h6.422v0.885h-2.713V392.526L369.838,392.526z"/>
		<path fill="#FFFFFF" d="M373.84,392.526v-8.565h0.996v8.565H373.84z"/>
		<path fill="#FFFFFF" d="M382.077,383.96h1.072l-3.088,8.566h-0.984l-3.068-8.566h1.055l1.969,5.543
			c0.229,0.637,0.406,1.256,0.539,1.857c0.143-0.633,0.324-1.264,0.551-1.895L382.077,383.96z"/>
		<path fill="#FFFFFF" d="M389.713,392.526l-1.066-2.726h-3.434l-1.057,2.726h-1.008l3.387-8.603h0.84l3.367,8.603H389.713z
			 M388.336,388.906l-0.996-2.654c-0.129-0.336-0.264-0.748-0.398-1.235c-0.086,0.375-0.209,0.787-0.369,1.235l-1.008,2.654H388.336
			z"/>
	</g>
</g>
<g>
	<g>
		<path fill="#FFFFFF" d="M425.772,316.763h-4.775v-8.566h4.775v0.887h-3.779v2.76h3.553v0.881h-3.553v3.15h3.779V316.763z"/>
		<path fill="#FFFFFF" d="M432.504,314.483c0,0.754-0.273,1.343-0.82,1.765s-1.289,0.633-2.229,0.633
			c-1.016,0-1.797-0.131-2.344-0.394v-0.961c0.354,0.147,0.734,0.267,1.148,0.353s0.824,0.129,1.229,0.129
			c0.664,0,1.164-0.125,1.5-0.377s0.504-0.604,0.504-1.053c0-0.298-0.06-0.539-0.179-0.729c-0.119-0.188-0.317-0.365-0.598-0.523
			c-0.28-0.16-0.704-0.344-1.274-0.547c-0.797-0.283-1.366-0.622-1.708-1.014c-0.342-0.391-0.513-0.899-0.513-1.529
			c0-0.658,0.248-1.186,0.744-1.574s1.15-0.586,1.969-0.586c0.852,0,1.635,0.154,2.35,0.469l-0.311,0.867
			c-0.707-0.299-1.396-0.445-2.063-0.445c-0.525,0-0.938,0.113-1.234,0.342c-0.297,0.227-0.445,0.539-0.445,0.941
			c0,0.297,0.055,0.541,0.164,0.729c0.109,0.189,0.294,0.363,0.554,0.521c0.262,0.158,0.657,0.332,1.192,0.523
			c0.896,0.318,1.517,0.664,1.854,1.029C432.331,313.42,432.504,313.897,432.504,314.483z"/>
		<path fill="#FFFFFF" d="M439.688,310.692c0,0.867-0.296,1.535-0.888,2.002c-0.594,0.468-1.438,0.699-2.54,0.699h-1.008v3.369
			h-0.996v-8.566h2.221C438.616,308.196,439.688,309.028,439.688,310.692z M435.252,312.539h0.896c0.883,0,1.521-0.144,1.916-0.429
			c0.396-0.284,0.592-0.741,0.592-1.37c0-0.566-0.186-0.988-0.557-1.267c-0.371-0.277-0.949-0.416-1.734-0.416h-1.111
			L435.252,312.539L435.252,312.539z"/>
		<path fill="#FFFFFF" d="M446.256,316.763h-4.775v-8.566h4.775v0.887h-3.779v2.76h3.551v0.881h-3.551v3.15h3.779V316.763z"/>
		<path fill="#FFFFFF" d="M451.823,308.964c-0.939,0-1.685,0.314-2.229,0.941s-0.817,1.484-0.817,2.574
			c0,1.121,0.263,1.986,0.788,2.6c0.525,0.611,1.274,0.916,2.247,0.916c0.598,0,1.279-0.107,2.045-0.322v0.873
			c-0.594,0.223-1.326,0.334-2.197,0.334c-1.262,0-2.233-0.383-2.921-1.148c-0.686-0.765-1.026-1.854-1.026-3.264
			c0-0.883,0.165-1.656,0.493-2.32c0.33-0.664,0.809-1.176,1.432-1.535c0.623-0.357,1.354-0.537,2.2-0.537
			c0.896,0,1.684,0.162,2.354,0.49l-0.422,0.855C453.118,309.117,452.471,308.964,451.823,308.964z"/>
		<path fill="#FFFFFF" d="M462.194,308.196v5.544c0,0.977-0.295,1.743-0.885,2.303s-1.4,0.838-2.432,0.838
			c-1.032,0-1.829-0.28-2.396-0.844c-0.563-0.563-0.847-1.336-0.847-2.32v-5.52h0.996v5.59c0,0.715,0.193,1.265,0.586,1.646
			c0.391,0.383,0.965,0.574,1.723,0.574c0.723,0,1.279-0.191,1.67-0.576c0.393-0.385,0.586-0.938,0.586-1.656v-5.576
			L462.194,308.196L462.194,308.196z"/>
		<path fill="#FFFFFF" d="M464.461,316.763v-8.566h0.994v7.664h3.779v0.902H464.461z"/>
		<path fill="#FFFFFF" d="M476.073,316.763l-1.064-2.725h-3.436l-1.055,2.725h-1.008l3.387-8.602h0.838l3.369,8.602H476.073z
			 M474.698,313.142l-0.996-2.654c-0.129-0.336-0.262-0.746-0.396-1.234c-0.086,0.375-0.209,0.787-0.369,1.234l-1.008,2.654H474.698
			z"/>
		<path fill="#FFFFFF" d="M480.92,316.763h-0.996v-7.682h-2.713v-0.885h6.422v0.885h-2.713V316.763L480.92,316.763z"/>
		<path fill="#FFFFFF" d="M484.922,316.763v-8.566h0.996v8.566H484.922z"/>
		<path fill="#FFFFFF" d="M493.159,308.196h1.072l-3.088,8.566h-0.984l-3.068-8.566h1.055l1.969,5.544
			c0.229,0.637,0.406,1.256,0.539,1.856c0.143-0.634,0.324-1.265,0.551-1.894L493.159,308.196z"/>
		<path fill="#FFFFFF" d="M500.795,316.763l-1.066-2.725h-3.434l-1.057,2.725h-1.008l3.387-8.602h0.839l3.368,8.602H500.795z
			 M499.418,313.142l-0.996-2.654c-0.129-0.336-0.264-0.746-0.398-1.234c-0.086,0.375-0.209,0.787-0.369,1.234l-1.008,2.654H499.418
			z"/>
	</g>
</g>
<g>
	<g>
		<path fill="#FFFFFF" d="M650.995,392.526l-1.064-2.726h-3.436l-1.055,2.726h-1.008l3.387-8.603h0.838l3.369,8.603H650.995z
			 M649.618,388.906l-0.995-2.654c-0.13-0.336-0.263-0.748-0.397-1.235c-0.086,0.375-0.209,0.787-0.369,1.235l-1.008,2.654H649.618z
			"/>
		<path fill="#FFFFFF" d="M653.204,383.96h2.421c1.138,0,1.959,0.17,2.468,0.51c0.508,0.34,0.762,0.877,0.762,1.611
			c0,0.508-0.142,0.928-0.425,1.258s-0.696,0.543-1.239,0.641v0.061c1.301,0.223,1.951,0.904,1.951,2.051
			c0,0.768-0.259,1.363-0.776,1.793c-0.517,0.432-1.24,0.646-2.171,0.646h-2.987L653.204,383.96L653.204,383.96z M654.2,387.628
			h1.643c0.703,0,1.209-0.109,1.518-0.33c0.311-0.221,0.463-0.594,0.463-1.117c0-0.479-0.172-0.826-0.516-1.039
			s-0.891-0.32-1.641-0.32H654.2V387.628L654.2,387.628z M654.2,388.472v3.205h1.787c0.691,0,1.212-0.133,1.563-0.4
			c0.35-0.267,0.522-0.688,0.522-1.258c0-0.531-0.179-0.922-0.536-1.172c-0.355-0.25-0.899-0.375-1.632-0.375H654.2z"/>
		<path fill="#FFFFFF" d="M665.815,390.248c0,0.754-0.273,1.342-0.82,1.765c-0.547,0.422-1.289,0.633-2.227,0.633
			c-1.016,0-1.797-0.131-2.344-0.394v-0.961c0.352,0.147,0.732,0.267,1.146,0.353s0.824,0.129,1.23,0.129
			c0.664,0,1.164-0.125,1.5-0.377s0.504-0.604,0.504-1.054c0-0.297-0.062-0.539-0.18-0.729c-0.118-0.188-0.317-0.363-0.599-0.523
			s-0.704-0.342-1.272-0.545c-0.799-0.285-1.366-0.623-1.708-1.016c-0.344-0.391-0.515-0.898-0.515-1.527
			c0-0.66,0.248-1.188,0.744-1.576s1.152-0.586,1.969-0.586c0.854,0,1.637,0.156,2.352,0.471l-0.313,0.865
			c-0.707-0.297-1.395-0.443-2.063-0.443c-0.527,0-0.939,0.111-1.236,0.34c-0.297,0.227-0.445,0.541-0.445,0.941
			c0,0.299,0.057,0.541,0.164,0.73c0.109,0.188,0.295,0.361,0.556,0.521c0.26,0.158,0.655,0.331,1.19,0.522
			c0.898,0.319,1.519,0.664,1.854,1.03C665.64,389.185,665.815,389.662,665.815,390.248z"/>
		<path fill="#FFFFFF" d="M670.202,392.526h-0.995v-7.683h-2.714v-0.885h6.423v0.885h-2.714V392.526z"/>
		<path fill="#FFFFFF" d="M675.2,388.964v3.563h-0.996v-8.564h2.352c1.051,0,1.827,0.201,2.329,0.604s0.753,1.009,0.753,1.815
			c0,1.134-0.574,1.897-1.725,2.297l2.326,3.851h-1.178l-2.074-3.563L675.2,388.964L675.2,388.964z M675.2,388.108h1.365
			c0.703,0,1.219-0.14,1.547-0.418s0.492-0.698,0.492-1.258c0-0.565-0.167-0.976-0.501-1.226s-0.87-0.375-1.608-0.375H675.2V388.108
			L675.2,388.108z"/>
		<path fill="#FFFFFF" d="M687.008,392.526l-1.066-2.726h-3.434l-1.057,2.726h-1.008l3.388-8.603h0.839l3.368,8.603H687.008z
			 M685.631,388.906l-0.996-2.654c-0.129-0.336-0.264-0.748-0.398-1.235c-0.086,0.375-0.209,0.787-0.369,1.235l-1.008,2.654H685.631
			z"/>
		<path fill="#FFFFFF" d="M692.885,384.728c-0.941,0-1.687,0.314-2.229,0.941s-0.815,1.484-0.815,2.574
			c0,1.121,0.263,1.988,0.788,2.6c0.523,0.612,1.272,0.916,2.245,0.916c0.6,0,1.279-0.107,2.047-0.322v0.873
			c-0.596,0.225-1.326,0.334-2.197,0.334c-1.263,0-2.235-0.383-2.921-1.146c-0.688-0.766-1.028-1.854-1.028-3.266
			c0-0.883,0.165-1.654,0.495-2.318s0.807-1.178,1.43-1.535s1.356-0.539,2.2-0.539c0.898,0,1.684,0.164,2.354,0.492l-0.423,0.854
			C694.182,384.88,693.532,384.728,692.885,384.728z"/>
		<path fill="#FFFFFF" d="M699.424,392.526h-0.996v-7.683h-2.713v-0.885h6.422v0.885h-2.713V392.526z"/>
		<path fill="#FFFFFF" d="M710.862,388.231c0,1.371-0.347,2.449-1.04,3.233c-0.691,0.785-1.657,1.179-2.892,1.179
			c-1.262,0-2.235-0.386-2.921-1.156c-0.688-0.771-1.028-1.86-1.028-3.269c0-1.395,0.344-2.475,1.031-3.241
			c0.687-0.768,1.664-1.151,2.93-1.151c1.23,0,2.191,0.391,2.883,1.172C710.517,385.778,710.862,386.856,710.862,388.231z
			 M704.034,388.231c0,1.16,0.247,2.041,0.741,2.642s1.212,0.897,2.153,0.897c0.949,0,1.666-0.299,2.149-0.896
			s0.728-1.479,0.728-2.645c0-1.15-0.241-2.023-0.724-2.621c-0.483-0.596-1.196-0.895-2.144-0.895c-0.949,0-1.671,0.301-2.165,0.9
			C704.281,386.215,704.034,387.087,704.034,388.231z"/>
		<path fill="#FFFFFF" d="M717.606,390.248c0,0.754-0.273,1.342-0.82,1.765c-0.547,0.422-1.289,0.633-2.227,0.633
			c-1.016,0-1.797-0.131-2.344-0.394v-0.961c0.352,0.147,0.732,0.267,1.146,0.353s0.824,0.129,1.23,0.129
			c0.664,0,1.164-0.125,1.5-0.377s0.504-0.604,0.504-1.054c0-0.297-0.062-0.539-0.18-0.729c-0.118-0.188-0.317-0.363-0.599-0.523
			s-0.704-0.342-1.272-0.545c-0.799-0.285-1.366-0.623-1.708-1.016c-0.344-0.391-0.515-0.898-0.515-1.527
			c0-0.66,0.248-1.188,0.744-1.576s1.152-0.586,1.969-0.586c0.854,0,1.637,0.156,2.352,0.471l-0.313,0.865
			c-0.707-0.297-1.395-0.443-2.063-0.443c-0.527,0-0.939,0.111-1.236,0.34c-0.297,0.227-0.445,0.541-0.445,0.941
			c0,0.299,0.057,0.541,0.164,0.73c0.109,0.188,0.295,0.361,0.556,0.521c0.26,0.158,0.655,0.331,1.19,0.522
			c0.898,0.319,1.519,0.664,1.854,1.03C717.431,389.185,717.606,389.662,717.606,390.248z"/>
	</g>
</g>
<g>
	<g>
		<path fill="#FFFFFF" d="M646.608,316.763h-0.996v-8.566h4.775v0.887h-3.779v3.135h3.551v0.887h-3.551V316.763L646.608,316.763z"/>
		<path fill="#FFFFFF" d="M651.805,316.763v-8.566h0.996v8.566H651.805z"/>
		<path fill="#FFFFFF" d="M658.918,312.274h2.91v4.166c-0.451,0.146-0.912,0.254-1.383,0.328c-0.469,0.073-1.012,0.11-1.629,0.11
			c-1.297,0-2.307-0.385-3.029-1.155c-0.722-0.771-1.084-1.854-1.084-3.244c0-0.892,0.181-1.67,0.536-2.34
			c0.357-0.671,0.872-1.183,1.544-1.535c0.674-0.354,1.459-0.53,2.361-0.53c0.914,0,1.766,0.168,2.555,0.504l-0.387,0.879
			c-0.771-0.328-1.518-0.492-2.23-0.492c-1.045,0-1.857,0.312-2.443,0.933s-0.879,1.481-0.879,2.584
			c0,1.156,0.281,2.033,0.847,2.631c0.566,0.599,1.394,0.896,2.487,0.896c0.594,0,1.174-0.066,1.74-0.203v-2.639h-1.916V312.274
			L658.918,312.274z"/>
		<path fill="#FFFFFF" d="M670.356,308.196v5.544c0,0.977-0.295,1.743-0.885,2.303s-1.4,0.838-2.434,0.838
			c-1.03,0-1.827-0.28-2.394-0.844s-0.847-1.336-0.847-2.32v-5.52h0.996v5.59c0,0.715,0.193,1.265,0.586,1.646
			c0.391,0.383,0.965,0.574,1.723,0.574c0.723,0,1.279-0.191,1.67-0.576s0.586-0.938,0.586-1.656v-5.576L670.356,308.196
			L670.356,308.196z"/>
		<path fill="#FFFFFF" d="M673.618,313.201v3.563h-0.995v-8.566h2.351c1.051,0,1.827,0.201,2.329,0.604
			c0.502,0.403,0.753,1.008,0.753,1.816c0,1.133-0.574,1.898-1.724,2.297l2.325,3.85h-1.178l-2.074-3.563L673.618,313.201
			L673.618,313.201z M673.618,312.345h1.365c0.703,0,1.219-0.139,1.547-0.418s0.492-0.699,0.492-1.258
			c0-0.566-0.167-0.975-0.501-1.225s-0.87-0.375-1.607-0.375h-1.296V312.345L673.618,312.345z"/>
		<path fill="#FFFFFF" d="M685.426,316.763l-1.066-2.725h-3.434l-1.057,2.725h-1.008l3.389-8.602h0.838l3.369,8.602H685.426z
			 M684.049,313.142l-0.996-2.654c-0.129-0.336-0.262-0.746-0.398-1.234c-0.086,0.375-0.209,0.787-0.369,1.234l-1.008,2.654H684.049
			z"/>
		<path fill="#FFFFFF" d="M690.272,316.763h-0.996v-7.682h-2.713v-0.885h6.422v0.885h-2.713V316.763z"/>
		<path fill="#FFFFFF" d="M694.274,316.763v-8.566h0.996v8.566H694.274z"/>
		<path fill="#FFFFFF" d="M702.512,308.196h1.072l-3.09,8.566h-0.982l-3.07-8.566h1.055l1.971,5.544
			c0.227,0.637,0.404,1.256,0.539,1.856c0.141-0.634,0.322-1.265,0.551-1.894L702.512,308.196z"/>
		<path fill="#FFFFFF" d="M712.198,312.468c0,1.371-0.347,2.449-1.04,3.234c-0.691,0.785-1.655,1.178-2.892,1.178
			c-1.262,0-2.235-0.385-2.921-1.156c-0.688-0.771-1.028-1.861-1.028-3.268c0-1.395,0.344-2.475,1.031-3.242
			c0.687-0.768,1.664-1.152,2.93-1.152c1.23,0,2.191,0.393,2.883,1.172C711.853,310.015,712.198,311.093,712.198,312.468z
			 M705.37,312.468c0,1.16,0.247,2.041,0.741,2.641c0.494,0.602,1.212,0.898,2.153,0.898c0.949,0,1.666-0.299,2.149-0.896
			c0.483-0.596,0.728-1.479,0.728-2.643c0-1.152-0.241-2.025-0.724-2.621c-0.483-0.596-1.196-0.895-2.144-0.895
			c-0.949,0-1.671,0.301-2.165,0.9C705.616,310.451,705.37,311.324,705.37,312.468z"/>
		<path fill="#FFFFFF" d="M718.942,314.483c0,0.754-0.271,1.343-0.82,1.765c-0.547,0.422-1.289,0.633-2.227,0.633
			c-1.016,0-1.797-0.131-2.344-0.394v-0.961c0.352,0.147,0.732,0.267,1.146,0.353s0.824,0.129,1.23,0.129
			c0.664,0,1.164-0.125,1.5-0.377s0.504-0.604,0.504-1.053c0-0.298-0.061-0.539-0.179-0.729c-0.119-0.188-0.318-0.365-0.6-0.523
			c-0.28-0.16-0.704-0.344-1.272-0.547c-0.797-0.283-1.366-0.622-1.708-1.014c-0.343-0.391-0.515-0.899-0.515-1.529
			c0-0.658,0.248-1.186,0.744-1.574s1.152-0.586,1.969-0.586c0.854,0,1.637,0.154,2.352,0.469l-0.313,0.867
			c-0.707-0.299-1.395-0.445-2.063-0.445c-0.527,0-0.939,0.113-1.236,0.342c-0.297,0.227-0.443,0.539-0.443,0.941
			c0,0.297,0.055,0.541,0.162,0.729c0.109,0.189,0.296,0.363,0.556,0.521s0.657,0.332,1.19,0.523
			c0.898,0.318,1.519,0.664,1.854,1.029C718.77,313.42,718.942,313.897,718.942,314.483z"/>
	</g>
</g>
<g>
	<g>
		<path fill="#FFFFFF" d="M517.133,245.369h-0.996v-7.682h-2.713v-0.885h6.422v0.885h-2.713V245.369z"/>
		<path fill="#FFFFFF" d="M525.909,245.369h-4.773v-8.566h4.773v0.885h-3.777v2.76h3.551v0.879h-3.551v3.152h3.777V245.369z"/>
		<path fill="#FFFFFF" d="M531.6,245.369l-2.906-7.594h-0.047c0.055,0.602,0.082,1.316,0.082,2.145v5.449h-0.92v-8.566h1.5
			l2.713,7.066h0.047l2.736-7.066h1.488v8.566h-0.996v-5.52c0-0.633,0.025-1.32,0.082-2.063h-0.049l-2.93,7.582L531.6,245.369
			L531.6,245.369z"/>
		<path fill="#FFFFFF" d="M544.073,239.298c0,0.867-0.296,1.535-0.888,2.002c-0.592,0.467-1.438,0.699-2.54,0.699h-1.008v3.369
			h-0.996v-8.566h2.221C543.004,236.802,544.073,237.634,544.073,239.298z M539.639,241.144h0.896c0.884,0,1.521-0.143,1.916-0.428
			c0.396-0.285,0.594-0.742,0.594-1.371c0-0.566-0.188-0.988-0.559-1.266c-0.371-0.278-0.949-0.416-1.732-0.416h-1.113
			L539.639,241.144L539.639,241.144z"/>
		<path fill="#FFFFFF" d="M545.866,245.369v-8.566h0.996v7.664h3.779v0.902H545.866z"/>
		<path fill="#FFFFFF" d="M559.531,241.074c0,1.371-0.347,2.449-1.04,3.234c-0.691,0.785-1.655,1.178-2.892,1.178
			c-1.262,0-2.235-0.385-2.921-1.156c-0.688-0.771-1.028-1.861-1.028-3.268c0-1.395,0.344-2.475,1.031-3.242
			c0.687-0.767,1.664-1.152,2.93-1.152c1.23,0,2.191,0.391,2.883,1.172C559.187,238.621,559.531,239.699,559.531,241.074z
			 M552.704,241.074c0,1.16,0.247,2.041,0.741,2.641c0.494,0.6,1.212,0.898,2.153,0.898c0.949,0,1.666-0.299,2.15-0.896
			c0.482-0.597,0.727-1.479,0.727-2.643c0-1.152-0.241-2.025-0.724-2.621c-0.483-0.596-1.196-0.895-2.144-0.895
			c-0.949,0-1.671,0.301-2.165,0.9S552.704,239.929,552.704,241.074z"/>
	</g>
</g>
<g>
	<path fill="#FFFFFF" d="M813.185,278.183c0,0.866-0.296,1.534-0.888,2.002c-0.593,0.467-1.438,0.698-2.54,0.698h-1.009v3.369
		h-0.995v-8.565h2.221C812.115,275.687,813.185,276.519,813.185,278.183z M808.748,280.026h0.896c0.883,0,1.521-0.143,1.916-0.428
		s0.592-0.742,0.592-1.371c0-0.565-0.186-0.987-0.557-1.266c-0.371-0.277-0.949-0.416-1.734-0.416h-1.113V280.026z"/>
	<path fill="#FFFFFF" d="M822.412,279.957c0,1.371-0.347,2.449-1.039,3.233c-0.693,0.785-1.657,1.179-2.893,1.179
		c-1.262,0-2.235-0.386-2.921-1.156c-0.687-0.771-1.028-1.86-1.028-3.269c0-1.395,0.344-2.475,1.031-3.241s1.664-1.152,2.93-1.152
		c1.23,0,2.191,0.392,2.883,1.173C822.068,277.504,822.412,278.582,822.412,279.957z M815.587,279.957
		c0,1.16,0.247,2.041,0.74,2.642c0.494,0.6,1.212,0.897,2.153,0.897c0.949,0,1.666-0.299,2.15-0.896
		c0.483-0.598,0.727-1.479,0.727-2.644c0-1.151-0.241-2.024-0.724-2.621c-0.483-0.596-1.196-0.896-2.143-0.896
		c-0.948,0-1.671,0.302-2.165,0.9C815.833,277.94,815.587,278.813,815.587,279.957z"/>
	<path fill="#FFFFFF" d="M825.32,280.688v3.563h-0.996v-8.565h2.351c1.051,0,1.827,0.2,2.329,0.604
		c0.502,0.402,0.753,1.008,0.753,1.816c0,1.133-0.574,1.897-1.724,2.297l2.326,3.85h-1.178l-2.074-3.563h-1.787V280.688z
		 M825.32,279.834h1.365c0.703,0,1.219-0.14,1.547-0.418s0.492-0.699,0.492-1.258c0-0.566-0.167-0.976-0.501-1.226
		s-0.87-0.375-1.608-0.375h-1.295V279.834L825.32,279.834z"/>
	<path fill="#FFFFFF" d="M834.378,284.252h-0.996v-7.683h-2.713v-0.885h6.422v0.885h-2.713V284.252z"/>
	<path fill="#FFFFFF" d="M843.765,284.252l-1.066-2.726h-3.434l-1.055,2.726h-1.009l3.388-8.603h0.838l3.369,8.603H843.765z
		 M842.388,280.631l-0.996-2.653c-0.129-0.336-0.262-0.748-0.398-1.236c-0.086,0.375-0.209,0.787-0.368,1.236l-1.009,2.653H842.388z
		"/>
	<path fill="#FFFFFF" d="M852.812,279.887c0,1.414-0.384,2.496-1.151,3.244c-0.767,0.748-1.872,1.121-3.313,1.121h-2.373v-8.565
		h2.625c1.332,0,2.367,0.368,3.104,1.106C852.443,277.531,852.812,278.563,852.812,279.887z M851.757,279.922
		c0-1.116-0.28-1.959-0.841-2.524c-0.562-0.566-1.395-0.851-2.5-0.851h-1.446v6.845h1.213c1.188,0,2.08-0.291,2.678-0.875
		S851.757,281.065,851.757,279.922z"/>
	<path fill="#FFFFFF" d="M860.107,284.252l-1.065-2.726h-3.435l-1.055,2.726h-1.008l3.387-8.603h0.838l3.369,8.603H860.107z
		 M858.73,280.631l-0.996-2.653c-0.129-0.336-0.262-0.748-0.397-1.236c-0.086,0.375-0.209,0.787-0.369,1.236l-1.008,2.653H858.73z"
		/>
	<path fill="#FFFFFF" d="M867.15,281.974c0,0.754-0.272,1.342-0.82,1.764c-0.547,0.422-1.288,0.633-2.227,0.633
		c-1.016,0-1.797-0.131-2.344-0.393v-0.961c0.352,0.147,0.733,0.266,1.147,0.352s0.824,0.129,1.23,0.129
		c0.664,0,1.164-0.125,1.5-0.377s0.504-0.604,0.504-1.053c0-0.297-0.061-0.539-0.179-0.729c-0.119-0.19-0.318-0.364-0.599-0.524
		c-0.279-0.16-0.704-0.343-1.273-0.545c-0.797-0.285-1.366-0.623-1.708-1.015c-0.343-0.392-0.514-0.899-0.514-1.528
		c0-0.66,0.248-1.187,0.744-1.576c0.496-0.391,1.152-0.586,1.97-0.586c0.852,0,1.635,0.155,2.35,0.469l-0.312,0.867
		c-0.706-0.297-1.395-0.445-2.063-0.445c-0.527,0-0.939,0.113-1.236,0.34s-0.444,0.541-0.444,0.943c0,0.297,0.055,0.541,0.164,0.729
		c0.108,0.189,0.294,0.363,0.554,0.521c0.26,0.158,0.657,0.332,1.191,0.523c0.898,0.32,1.518,0.664,1.854,1.031
		S867.15,281.387,867.15,281.974z"/>
	<path fill="#FFFFFF" d="M878.857,279.887c0,1.414-0.384,2.496-1.151,3.244c-0.767,0.748-1.871,1.121-3.313,1.121h-2.373v-8.565
		h2.625c1.332,0,2.367,0.368,3.105,1.106C878.488,277.531,878.857,278.563,878.857,279.887z M877.802,279.922
		c0-1.116-0.28-1.959-0.841-2.524c-0.562-0.566-1.395-0.851-2.499-0.851h-1.447v6.845h1.213c1.188,0,2.08-0.291,2.678-0.875
		C877.504,281.933,877.802,281.065,877.802,279.922z"/>
	<path fill="#FFFFFF" d="M885.541,284.252h-4.774v-8.565h4.774v0.885h-3.778v2.76h3.551v0.879h-3.551v3.152h3.778V284.252z"/>
	<path fill="#FFFFFF" d="M890.558,284.252v-8.565h0.996v7.664h3.778v0.901H890.558z"/>
	<path fill="#FFFFFF" d="M896.785,284.252v-8.565h0.996v8.565H896.785z"/>
	<path fill="#FFFFFF" d="M900.132,275.687h2.42c1.137,0,1.959,0.17,2.467,0.51s0.762,0.877,0.762,1.611
		c0,0.508-0.142,0.928-0.425,1.258s-0.696,0.543-1.239,0.641v0.059c1.302,0.223,1.951,0.906,1.951,2.051
		c0,0.767-0.259,1.363-0.776,1.793c-0.517,0.431-1.24,0.646-2.171,0.646h-2.987L900.132,275.687L900.132,275.687z M901.128,279.354
		h1.641c0.703,0,1.209-0.109,1.518-0.33c0.31-0.221,0.464-0.594,0.464-1.117c0-0.48-0.173-0.826-0.517-1.039s-0.891-0.32-1.641-0.32
		h-1.465V279.354z M901.128,280.197v3.204h1.786c0.691,0,1.213-0.133,1.563-0.399s0.523-0.688,0.523-1.258
		c0-0.531-0.179-0.922-0.535-1.172c-0.357-0.25-0.901-0.375-1.633-0.375H901.128z"/>
	<path fill="#FFFFFF" d="M908.904,280.688v3.563h-0.996v-8.565h2.351c1.051,0,1.827,0.2,2.329,0.604
		c0.502,0.402,0.753,1.008,0.753,1.816c0,1.133-0.574,1.897-1.724,2.297l2.326,3.85h-1.178l-2.074-3.563h-1.787V280.688z
		 M908.904,279.834h1.365c0.703,0,1.219-0.14,1.547-0.418s0.492-0.699,0.492-1.258c0-0.566-0.167-0.976-0.501-1.226
		s-0.87-0.375-1.608-0.375h-1.295V279.834L908.904,279.834z"/>
	<path fill="#FFFFFF" d="M922.761,279.957c0,1.371-0.348,2.449-1.04,3.233c-0.693,0.785-1.657,1.179-2.893,1.179
		c-1.262,0-2.234-0.386-2.921-1.156c-0.686-0.771-1.027-1.86-1.027-3.269c0-1.395,0.344-2.475,1.03-3.241
		c0.688-0.767,1.664-1.152,2.931-1.152c1.229,0,2.19,0.392,2.883,1.173C922.415,277.504,922.761,278.582,922.761,279.957z
		 M915.935,279.957c0,1.16,0.247,2.041,0.741,2.642c0.494,0.6,1.212,0.897,2.152,0.897c0.949,0,1.666-0.299,2.15-0.896
		c0.484-0.598,0.727-1.479,0.727-2.644c0-1.151-0.24-2.024-0.724-2.621c-0.482-0.596-1.196-0.896-2.142-0.896
		c-0.949,0-1.671,0.302-2.165,0.9C916.181,277.94,915.935,278.813,915.935,279.957z"/>
	<path fill="#FFFFFF" d="M929.505,281.974c0,0.754-0.273,1.342-0.82,1.764s-1.289,0.633-2.228,0.633
		c-1.016,0-1.797-0.131-2.344-0.393v-0.961c0.353,0.147,0.734,0.266,1.148,0.352s0.824,0.129,1.229,0.129
		c0.664,0,1.164-0.125,1.5-0.377s0.504-0.604,0.504-1.053c0-0.297-0.06-0.539-0.179-0.729s-0.318-0.364-0.598-0.524
		c-0.28-0.16-0.704-0.343-1.274-0.545c-0.797-0.285-1.366-0.623-1.708-1.015s-0.513-0.899-0.513-1.528
		c0-0.66,0.248-1.187,0.744-1.576c0.496-0.391,1.151-0.586,1.969-0.586c0.852,0,1.635,0.155,2.35,0.469l-0.311,0.867
		c-0.707-0.297-1.396-0.445-2.063-0.445c-0.526,0-0.938,0.113-1.235,0.34s-0.445,0.541-0.445,0.943c0,0.297,0.055,0.541,0.164,0.729
		c0.109,0.189,0.294,0.363,0.554,0.521c0.261,0.158,0.657,0.332,1.192,0.523c0.897,0.32,1.517,0.664,1.854,1.031
		S929.505,281.387,929.505,281.974z"/>
</g>
</svg>
